<svg xmlns="http://www.w3.org/2000/svg" xmlns:xlink="http://www.w3.org/1999/xlink" width="149.932" height="44.242" viewBox="0 0 149.932 44.242"><defs><style>.a,.b,.d,.e,.f,.g,.h,.i,.j,.k{fill-rule:evenodd;}.b{fill:#a6a6a6;}.c,.d,.k{fill:#fff;}.e{fill:url(#a);}.f{fill:url(#b);}.g{fill:url(#c);}.h{fill:url(#d);}.i{opacity:0.2;}.j{opacity:0.12;}.k{opacity:0.25;}</style><linearGradient id="a" x1="2.472" y1="1.035" x2="2.361" y2="1.005" gradientUnits="objectBoundingBox"><stop offset="0" stop-color="#00a0ff"/><stop offset="0.007" stop-color="#00a1ff"/><stop offset="0.26" stop-color="#00beff"/><stop offset="0.512" stop-color="#00d2ff"/><stop offset="0.76" stop-color="#00dfff"/><stop offset="1" stop-color="#00e3ff"/></linearGradient><linearGradient id="b" x1="1.95" y1="1.879" x2="1.69" y2="1.879" gradientUnits="objectBoundingBox"><stop offset="0" stop-color="#ffe000"/><stop offset="0.409" stop-color="#ffbd00"/><stop offset="0.775" stop-color="orange"/><stop offset="1" stop-color="#ff9c00"/></linearGradient><linearGradient id="c" x1="1.926" y1="0.946" x2="1.835" y2="0.793" gradientUnits="objectBoundingBox"><stop offset="0" stop-color="#ff3a44"/><stop offset="1" stop-color="#c31162"/></linearGradient><linearGradient id="d" x1="1.856" y1="2.093" x2="1.897" y2="2.025" gradientUnits="objectBoundingBox"><stop offset="0" stop-color="#32a071"/><stop offset="0.068" stop-color="#2da771"/><stop offset="0.476" stop-color="#15cf74"/><stop offset="0.801" stop-color="#06e775"/><stop offset="1" stop-color="#00f076"/></linearGradient></defs><path class="a" d="M144.377,44.242H5.555A5.558,5.558,0,0,1,0,38.712V5.53A5.551,5.551,0,0,1,5.555,0H144.377a5.553,5.553,0,0,1,5.555,5.53V38.712A5.56,5.56,0,0,1,144.377,44.242Z" transform="translate(0 0)"/><path class="b" d="M144.377.885a4.67,4.67,0,0,1,4.67,4.645V38.712a4.661,4.661,0,0,1-4.67,4.645H5.555a4.67,4.67,0,0,1-4.67-4.645V5.53A4.661,4.661,0,0,1,5.555.885Zm0-.885H5.555A5.558,5.558,0,0,0,0,5.53V38.712a5.551,5.551,0,0,0,5.555,5.53H144.377a5.553,5.553,0,0,0,5.555-5.53V5.53A5.56,5.56,0,0,0,144.377,0Z" transform="translate(0 0)"/><path class="c" d="M1687.656,278.452a3.366,3.366,0,0,1-2.513-1.04,3.541,3.541,0,0,1-1.015-2.538,3.462,3.462,0,0,1,1.015-2.535,3.356,3.356,0,0,1,2.51-1.04,3.4,3.4,0,0,1,2.513,1.04,3.673,3.673,0,0,1,0,5.07A3.338,3.338,0,0,1,1687.656,278.452Zm-29.792,0a3.491,3.491,0,0,1-2.524-1.026,3.575,3.575,0,0,1,2.524-6.123,3.517,3.517,0,0,1,1.409.292,2.852,2.852,0,0,1,1.073.767l.066.08-.748.734-.077-.091a2.125,2.125,0,0,0-1.735-.747,2.4,2.4,0,0,0-1.729.706,2.681,2.681,0,0,0,0,3.674,2.528,2.528,0,0,0,3.506,0,1.909,1.909,0,0,0,.508-1.15h-2.4v-1.032h3.426l.014.094a3.772,3.772,0,0,1,.05.519,3.106,3.106,0,0,1-.855,2.289A3.338,3.338,0,0,1,1657.864,278.452Zm39.611-.146h-1.056l-3.235-5.177.027.932V278.3h-1.056v-6.854h1.206l.033.052,3.042,4.877-.028-.93v-4h1.068Zm-17.758,0h-1.07V272.48h-1.856v-1.032h4.78v1.032h-1.856v5.825Zm-3.8,0h-1.067v-6.857h1.067Zm-6,0h-1.067V272.48H1667v-1.032h4.78v1.032h-1.856Zm-3.6-.011h-4.093v-6.846h4.093v1.032H1663.3v1.881h2.728v1.021H1663.3v1.881h3.023Zm19.605-1.592a2.362,2.362,0,0,0,1.729.717,2.3,2.3,0,0,0,1.729-.717,2.718,2.718,0,0,0,0-3.652,2.367,2.367,0,0,0-1.729-.717,2.292,2.292,0,0,0-1.727.717,2.722,2.722,0,0,0-.006,3.652Z" transform="translate(-1608.67 -263.817)"/><path class="d" d="M1676.638,688.224a4.706,4.706,0,1,0,4.719,4.706A4.632,4.632,0,0,0,1676.638,688.224Zm0,7.547a2.859,2.859,0,1,1,2.653-2.852A2.723,2.723,0,0,1,1676.638,695.771Zm-10.3-7.547a4.706,4.706,0,1,0,4.719,4.706A4.632,4.632,0,0,0,1666.341,688.224Zm0,7.547a2.859,2.859,0,1,1,2.653-2.852A2.723,2.723,0,0,1,1666.341,695.771Zm-12.252-6.109v1.992h4.78a4.2,4.2,0,0,1-1.081,2.507,4.877,4.877,0,0,1-3.688,1.462,5.31,5.31,0,0,1,0-10.619,5.1,5.1,0,0,1,3.6,1.426l1.412-1.412a6.945,6.945,0,0,0-5-2.016,7.3,7.3,0,1,0,0,14.6,6.684,6.684,0,0,0,5.1-2.052,6.608,6.608,0,0,0,1.732-4.67,6.148,6.148,0,0,0-.11-1.241h-6.747S1654.089,689.661,1654.089,689.661Zm50.115,1.55a4.373,4.373,0,0,0-4.03-3,4.47,4.47,0,0,0-4.435,4.706,4.6,4.6,0,0,0,4.67,4.705,4.67,4.67,0,0,0,3.919-2.088l-1.6-1.07a2.676,2.676,0,0,1-2.312,1.3,2.4,2.4,0,0,1-2.287-1.426l6.292-2.607S1704.2,691.211,1704.2,691.211Zm-6.416,1.572a2.583,2.583,0,0,1,2.458-2.742,1.814,1.814,0,0,1,1.746,1Zm-5.111,4.559h2.066V683.519h-2.066Zm-3.393-8.073h-.074a3.259,3.259,0,0,0-2.482-1.056,4.705,4.705,0,0,0,0,9.4,3.25,3.25,0,0,0,2.482-1.07h.074v.676c0,1.8-.96,2.764-2.507,2.764a2.609,2.609,0,0,1-2.372-1.672l-1.8.75a4.491,4.491,0,0,0,4.165,2.778c2.422,0,4.474-1.426,4.474-4.9v-8.443H1689.3v.775Zm-2.372,6.5a2.861,2.861,0,0,1,0-5.7,2.645,2.645,0,0,1,2.507,2.863A2.613,2.613,0,0,1,1686.912,695.771Zm26.964-12.252h-4.94v13.824H1711v-5.235h2.877a4.3,4.3,0,1,0,0-8.589Zm.061,6.658H1711v-4.744h2.938a2.373,2.373,0,1,1,0,4.744Zm12.757-1.978a3.891,3.891,0,0,0-3.688,2.113l1.831.761a1.964,1.964,0,0,1,1.881-1.021,2,2,0,0,1,2.176,1.782v.146a4.627,4.627,0,0,0-2.151-.53c-1.978,0-3.983,1.081-3.983,3.109a3.2,3.2,0,0,0,3.428,3.048,2.908,2.908,0,0,0,2.629-1.352h.074v1.07h1.992v-5.3C1730.884,689.565,1729.053,688.2,1726.695,688.2Zm-.259,7.571c-.676,0-1.622-.331-1.622-1.18,0-1.07,1.18-1.476,2.187-1.476a3.585,3.585,0,0,1,1.881.466A2.487,2.487,0,0,1,1726.435,695.771Zm11.714-7.276-2.372,6h-.074l-2.458-6h-2.223l3.688,8.382-2.1,4.659h2.151l5.674-13.041Zm-18.6,8.848h2.066V683.519h-2.066Z" transform="translate(-1601.28 -664.161)"/><path class="e" d="M400.6,299.474a2.24,2.24,0,0,0-.5,1.561v24.457a2.133,2.133,0,0,0,.516,1.547l.086.074,13.7-13.7v-.306L400.69,299.4Z" transform="translate(-389.064 -291.142)"/><path class="f" d="M922.87,639.961l-4.57-4.57v-.32l4.57-4.57.1.061,5.406,3.073c1.547.872,1.547,2.311,0,3.194L922.97,639.9Z" transform="translate(-892.971 -613.109)"/><path class="g" d="M436.858,806.67l-4.67-4.67L418.4,815.788a1.81,1.81,0,0,0,2.3.075l16.161-9.193" transform="translate(-406.859 -779.879)"/><path class="h" d="M436.858,296.03,420.7,286.851a1.792,1.792,0,0,0-2.3.074L432.188,300.7Z" transform="translate(-406.86 -278.579)"/><path class="i" d="M437.148,967.7l-16.05,9.119a1.821,1.821,0,0,1-2.212.011l-.086.086.086.074a1.826,1.826,0,0,0,2.212-.011l16.161-9.179Z" transform="translate(-407.248 -941.009)"/><path class="j" d="M1089.019,803.437l-5.519,3.133.1.1,5.406-3.073a1.937,1.937,0,0,0,1.156-1.6A1.991,1.991,0,0,1,1089.019,803.437Z" transform="translate(-1053.614 -779.879)"/><path class="k" d="M402.9,286.841l21.567,12.252a2.032,2.032,0,0,1,1.156,1.437,1.937,1.937,0,0,0-1.156-1.6L402.9,286.681c-1.547-.885-2.8-.146-2.8,1.622v.16C400.1,286.692,401.355,285.966,402.9,286.841Z" transform="translate(-389.064 -278.409)"/></svg>