<svg xmlns="http://www.w3.org/2000/svg" width="214" height="53" viewBox="0 0 214 53"><defs><style>.a{fill:#fff0f2;}.b{fill:#1f1f1f;}.c{fill:#993339;}</style></defs><g transform="translate(84.243 5.941)"><path class="a" d="M841.879,440.921V405.308h-.1c-2.521,1.3-6.005,2.946-9.329,4.448a4.445,4.445,0,0,0,.049-.8,3.4,3.4,0,0,0-1.8-3.05,5.408,5.408,0,0,0-2.683-.645c-6.155,0-12.161,7.79-13.12,13.585h-3.78l-.1.5h3.835a6.238,6.238,0,0,0-.049.95v20.628c0,3.249-.708,4.2-3.732,4.5v.1h34.55v-.1C842.586,445.118,841.879,444.171,841.879,440.921Zm-19.1-29.939h6.5a4.1,4.1,0,0,1,4.127,4.08v3.783h-7.214a3.413,3.413,0,0,1-2.916-1.63,3.359,3.359,0,0,1-.5-1.756ZM833.4,440.921c0,2.843-.579,3.924-2.717,4.351a8.174,8.174,0,0,1-1.6.146h-.536a8.8,8.8,0,0,1-1.3-.1c-3.154-.472-3.984-1.685-3.984-5.4V419.343H833.4Z" transform="translate(-811.005 -405.26)"/><path class="a" d="M1069.11,513.1c-.756,1.5-1.864,2.348-2.874,2.348-.961,0-1.263-.45-1.263-1.747V499.56a7.2,7.2,0,0,0-3.835-6.773,10.025,10.025,0,0,0-4.636-1.021c-7.117,0-14.734,4.149-14.734,9.993,0,2.149,1.517,3.3,3.784,3.3a8.979,8.979,0,0,0,4.342-1.3V493.419a6.921,6.921,0,0,1,2.267-.45c2.673,0,4.34,1.8,4.34,4.743v7.141l-1.716.634-8.025,2.965c-4.638,1.7-6.506,3.647-6.506,6.095,0,2.946,2.728,4.892,6.964,4.892.2,0,.4-.006.6-.017a12.544,12.544,0,0,0,8.684-3.977v.5c.3,2.149,2.42,3.5,5.395,3.5,3.229,0,6.052-2.4,7.315-6.239Zm-12.609,1.749a7.016,7.016,0,0,1-4.292,1.747,2.772,2.772,0,0,1-2.373-1.21,4.185,4.185,0,0,1-.651-2.387c0-2.406,1.783-5.227,5.253-6.815.131-.061.258-.124.393-.178l1.669-.649Z" transform="translate(-1005.239 -478.683)"/><path class="a" d="M1254.1,411.052a4.808,4.808,0,0,1-5.042,4.791,5.6,5.6,0,0,1-1.689-.255,4.682,4.682,0,0,1-3.362-4.536,4.811,4.811,0,0,1,5.051-4.8,5.258,5.258,0,0,1,3.252,1.069A4.65,4.65,0,0,1,1254.1,411.052Z" transform="translate(-1177.871 -406.105)"/><path class="a" d="M1253.036,500.058V513.35c0,3.992.959,5.095,4.744,5.49v.1h-32.891v-.1c2.975-.3,3.732-1.247,3.732-4.5V500.46c0-3.348-.757-4.346-3.732-5.047v-.1c4.083-1.048,8.925-2.45,12.106-3.5h.1v22.526c0,2.64.5,3.761,2.284,4.249a5.52,5.52,0,0,0,2.9,0c1.785-.488,2.285-1.609,2.285-4.249V500.46c0-3.348-.756-4.346-3.736-5.047v-.1c3.937-1.1,8.579-2.45,11.657-3.5h.1l.258,4.049.2,3.094c1.312-3.9,4.237-7.2,7.818-7.2,2.525,0,4.188,1.551,4.188,3.95a4.759,4.759,0,0,1-.8,2.5h-10.345C1253.591,498.759,1253.338,499.411,1253.036,500.058Z" transform="translate(-1161.672 -478.683)"/><path class="a" d="M1512.419,511.5a11.979,11.979,0,0,1-8.429,3.749,8.894,8.894,0,0,1-6.686-2.8,12.663,12.663,0,0,1-3-8.794,9.919,9.919,0,0,1,.048-1.2h17.758a10.008,10.008,0,0,0-6.656-9.828,14.25,14.25,0,0,0-5.048-.864c-8.727,0-14.58,5.549-14.58,13.937,0,6.457,3.406,11.225,8.906,12.989a16.422,16.422,0,0,0,5.021.747,13.826,13.826,0,0,0,12.758-7.89Zm-12.059-19.134c2.081,0,3.507,1.569,3.62,3.862,0,.1.01.188.01.287a5.115,5.115,0,0,1-1.859,4.206,5.975,5.975,0,0,1-3.74,1.14h-4.034C1494.763,496.112,1497.079,492.364,1500.36,492.364Z" transform="translate(-1382.759 -478.683)"/></g><path class="b" d="M453.374,380.307a16.116,16.116,0,0,0-10.686-4.939c-.328-.02-.658-.032-.991-.032h-21.75l5.947-5.888c.235-.233.478-.455.724-.67a16.2,16.2,0,0,1,22.05.67A15.81,15.81,0,0,1,453.374,380.307Z" transform="translate(-395.433 -364.781)"/><path class="b" d="M547.827,502.93a15.839,15.839,0,0,1-.677,21.834h0a16.124,16.124,0,0,1-10.967,4.66,15.829,15.829,0,0,0,4.988-10.581c.02-.325.033-.652.033-.981V496.325l5.947,5.888C547.385,502.446,547.61,502.687,547.827,502.93Z" transform="translate(-493.916 -476.43)"/><path class="a" d="M516.691,434.6a16.116,16.116,0,0,1,10.686,4.939,15.816,15.816,0,0,1,0,21.949,15.8,15.8,0,0,0-4.03-10.974c-.217-.243-.442-.484-.677-.717l-5.946-5.888-9.434-9.34h8.41C516.033,434.567,516.363,434.58,516.691,434.6Z" transform="translate(-469.436 -424.013)"/><path class="a" d="M479.724,583.675V592c0,.329-.013.656-.033.981a15.829,15.829,0,0,1-4.988,10.581,16.147,16.147,0,0,1-11.083-3.99c.246-.216.489-.437.724-.67l5.946-5.888Z" transform="translate(-432.437 -550.57)"/><path class="a" d="M374.287,368.777c-.247.215-.489.437-.724.67l-5.947,5.888-9.434,9.34V376.35c0-.33.014-.657.034-.982a15.828,15.828,0,0,1,4.988-10.581A16.147,16.147,0,0,1,374.287,368.777Z" transform="translate(-343.102 -364.781)"/><path class="b" d="M293.113,369.478a16.123,16.123,0,0,1,10.968-4.661,15.828,15.828,0,0,0-4.988,10.581c-.02.325-.034.652-.034.982v21.537l-5.947-5.888c-.235-.233-.459-.474-.676-.717a15.832,15.832,0,0,1,.676-21.834Z" transform="translate(-283.98 -364.812)"/><path class="b" d="M299.124,617.5c.328.019.658.033.99.033h21.75l-5.946,5.888c-.235.233-.479.454-.724.67a16.229,16.229,0,0,1-22.051-.67h0a15.811,15.811,0,0,1-4.706-10.859A16.117,16.117,0,0,0,299.124,617.5Z" transform="translate(-284.011 -575.088)"/><path class="a" d="M267.911,478.411c.217.243.441.484.676.717l5.947,5.888,9.434,9.341h-8.41c-.333,0-.662-.014-.991-.033a16.1,16.1,0,0,1-13.928-9.9,15.819,15.819,0,0,1,3.241-16.984A15.8,15.8,0,0,0,267.911,478.411Z" transform="translate(-259.454 -451.911)"/><path class="c" d="M575.677,502.93l-6.624-5.409v-1.2L575,502.213Z" transform="translate(-521.766 -476.43)"/><path class="c" d="M426.616,391.2l-5.463,6.559h-1.208l5.947-5.888Z" transform="translate(-395.432 -387.206)"/><path class="c" d="M314.822,540l6.624,5.409v1.2l-5.947-5.888Z" transform="translate(-306.366 -513.5)"/><path class="c" d="M463.62,652l5.463-6.559h1.208l-5.947,5.888Z" transform="translate(-432.436 -602.992)"/></svg>