<svg xmlns="http://www.w3.org/2000/svg" width="180.279" height="475.307" viewBox="0 0 180.279 475.307"><defs><style>.a{fill:none;stroke:#000;stroke-miterlimit:10;stroke-width:2px;}.b{fill:#f8b1a5;}.c{fill:#f99;}.d{fill:#f6afa3;}.e{fill:#d99a90;opacity:0.53;}</style></defs><g transform="translate(0)"><path class="a" d="M-1694.348-9565.632c-.987-51.316,4.316-163.82-53.6-268.432" transform="translate(1794.292 10012.68)"/><path class="a" d="M-1699.063-9550.269c-6.375-154.812-2.285-255.781,2.884-334.08" transform="translate(1808 9997.574)"/><path class="a" d="M-1693.878-9582.892c0-135.324,10.107-147.678,29.2-193.719" transform="translate(1810.535 10029.938)"/><g transform="translate(131.257 196.124)"><path class="b" d="M-1678.5-9797.045c-7.533,17.232-4.527,35.188,6.72,40.1l27.282-62.406C-1655.742-9824.264-1670.966-9814.279-1678.5-9797.045Z" transform="translate(1682.651 9820.601)"/><path class="c" d="M-1647.009-9819.639l-27.284,62.406c11.242,4.92,26.468-5.066,34-22.3S-1635.763-9814.723-1647.009-9819.639Z" transform="translate(1685.162 9820.891)"/></g><g transform="translate(78.248)"><path class="b" d="M-1723.211-9915.36c-2.164,32.334,13.185,59.693,34.29,61.107l7.834-117.107C-1702.184-9972.769-1721.047-9947.7-1723.211-9915.36Z" transform="translate(1723.414 9971.417)"/><path class="c" d="M-1689.055-9971.374l-7.835,117.107c21.1,1.416,39.959-23.656,42.123-55.992S-1667.952-9969.962-1689.055-9971.374Z" transform="translate(1731.382 9971.431)"/></g><g transform="translate(0 108.367)"><path class="b" d="M-1776.225-9837.4c11.029,19.814,30.449,30.047,43.383,22.85l-39.943-71.76C-1785.712-9879.117-1787.255-9857.219-1776.225-9837.4Z" transform="translate(1783.586 9888.615)"/><path class="c" d="M-1775.281-9885.782l39.942,71.76c12.929-7.193,14.47-29.092,3.442-48.906S-1762.348-9892.978-1775.281-9885.782Z" transform="translate(1786.081 9888.084)"/></g><path class="d" d="M-1642.577-9577.825h-94.562l-11.634-121.58h117.829Z" transform="translate(1794.044 10053.132)"/><path class="e" d="M-1691.057-9696.7l11.3,118.059h31.159S-1687.8-9636.671-1691.057-9696.7Z" transform="translate(1736.88 10053.946)"/><rect class="d" width="126.141" height="7.04" rx="2.707" transform="translate(41.116 350.207)"/><path class="e" d="M-1748.513-9696.7l.343,3.588H-1631.8l.459-3.588Z" transform="translate(1794.122 10053.945)"/></g></svg>