<svg xmlns="http://www.w3.org/2000/svg" width="132.401" height="44.242" viewBox="0 0 132.401 44.242"><defs><style>.a{fill:#030202;}.b{fill:#909295;}.c{fill:#fff;}</style></defs><g transform="translate(0 0)"><path class="a" d="M132.4,9.361V8.336a18.093,18.093,0,0,0-.186-2.235,6.544,6.544,0,0,0-.7-2.1,8.141,8.141,0,0,0-1.3-1.816,6.962,6.962,0,0,0-1.77-1.3,8.532,8.532,0,0,0-2.1-.7A12.072,12.072,0,0,0,124.111,0H8.336A12.072,12.072,0,0,0,6.1.186a7.927,7.927,0,0,0-2.1.7,9.962,9.962,0,0,0-1.816,1.3,9.962,9.962,0,0,0-1.3,1.816,7.927,7.927,0,0,0-.7,2.1A12.072,12.072,0,0,0,0,8.336V35.953a12.072,12.072,0,0,0,.186,2.235,6.544,6.544,0,0,0,.7,2.1,6.961,6.961,0,0,0,1.3,1.77,6.961,6.961,0,0,0,1.77,1.3,7.927,7.927,0,0,0,2.1.7,12.072,12.072,0,0,0,2.235.186H124.064a12.072,12.072,0,0,0,2.235-.186,7.927,7.927,0,0,0,2.1-.7,7.337,7.337,0,0,0,3.074-3.074,7.927,7.927,0,0,0,.7-2.1,12.074,12.074,0,0,0,.186-2.235V10.572A10.933,10.933,0,0,0,132.4,9.361Z" transform="translate(0 0)"/><path class="b" d="M121.829.931h2.235a11.992,11.992,0,0,1,2.1.186,8.712,8.712,0,0,1,1.863.605,7.491,7.491,0,0,1,1.583,1.118,5.9,5.9,0,0,1,1.118,1.537,7.288,7.288,0,0,1,.605,1.863,10.48,10.48,0,0,1,.186,2.049v27.57a15.922,15.922,0,0,1-.186,2.1,6.713,6.713,0,0,1-.605,1.863A6.628,6.628,0,0,1,129.56,41.4a5.9,5.9,0,0,1-1.537,1.118,7.289,7.289,0,0,1-1.863.605,10.805,10.805,0,0,1-2.049.186H8.383a11.627,11.627,0,0,1-2.1-.186,7.288,7.288,0,0,1-1.863-.605,5.346,5.346,0,0,1-1.583-1.164,5.9,5.9,0,0,1-1.118-1.537,7.289,7.289,0,0,1-.605-1.863,10.806,10.806,0,0,1-.186-2.049V8.336a11.992,11.992,0,0,1,.186-2.1,7.289,7.289,0,0,1,.605-1.863A6.466,6.466,0,0,1,2.841,2.794,5.9,5.9,0,0,1,4.378,1.677,5.841,5.841,0,0,1,6.24,1.071a18.864,18.864,0,0,1,2.1-.14H121.829m0-.931H8.29A12.072,12.072,0,0,0,6.054.186a8.2,8.2,0,0,0-2.049.7,9.962,9.962,0,0,0-1.816,1.3,9.962,9.962,0,0,0-1.3,1.816,7.927,7.927,0,0,0-.7,2.1A12.072,12.072,0,0,0,0,8.336V35.953a12.072,12.072,0,0,0,.186,2.235,6.544,6.544,0,0,0,.7,2.1,6.961,6.961,0,0,0,1.3,1.77,6.961,6.961,0,0,0,1.77,1.3,7.927,7.927,0,0,0,2.1.7,12.072,12.072,0,0,0,2.235.186H124.064a12.072,12.072,0,0,0,2.235-.186,7.927,7.927,0,0,0,2.1-.7,7.337,7.337,0,0,0,3.074-3.074,7.927,7.927,0,0,0,.7-2.1,12.074,12.074,0,0,0,.186-2.235V8.336a18.09,18.09,0,0,0-.186-2.235,6.544,6.544,0,0,0-.7-2.1,8.142,8.142,0,0,0-1.3-1.816,6.961,6.961,0,0,0-1.77-1.3,8.532,8.532,0,0,0-2.1-.7A12.072,12.072,0,0,0,124.064,0h-2.235Z" transform="translate(0 0)"/></g><g transform="translate(39.492 9.314)"><path class="c" d="M87.175,20.7a2.928,2.928,0,0,1,3.12,3.26c0,2.1-1.118,3.307-3.12,3.307H84.8V20.7Zm-1.4,5.682h1.257c1.4,0,2.189-.838,2.189-2.375a2.088,2.088,0,0,0-2.189-2.375H85.778Z" transform="translate(-84.8 -20.374)"/><path class="c" d="M99,26.608A2.308,2.308,0,0,1,101.329,24c1.444,0,2.329.978,2.329,2.608s-.885,2.608-2.329,2.608A2.332,2.332,0,0,1,99,26.608Zm3.679,0c0-1.071-.466-1.723-1.351-1.723-.838,0-1.351.652-1.351,1.723s.466,1.723,1.351,1.723C102.213,28.285,102.679,27.679,102.679,26.608Z" transform="translate(-92.387 -22.137)"/><path class="c" d="M116.142,29.183h-1.025L114.093,25.5h-.047l-1.025,3.679H112L110.6,24.2h.978l.885,3.819h.093l1.025-3.819h.931l1.025,3.819h.093l.885-3.819h.978Z" transform="translate(-98.585 -22.244)"/><path class="c" d="M127.9,24.093h.931v.792h.093a1.484,1.484,0,0,1,1.49-.885c1.118,0,1.723.652,1.723,1.863v3.213h-.978V26.1c0-.792-.326-1.211-1.071-1.211a1.139,1.139,0,0,0-1.211,1.257v2.934H127.9V24.093Z" transform="translate(-107.828 -22.137)"/><path class="c" d="M140.4,20h.978v6.939H140.4Z" transform="translate(-114.507 -20)"/><path class="c" d="M145.4,26.608A2.308,2.308,0,0,1,147.729,24c1.444,0,2.329.978,2.329,2.608s-.885,2.608-2.329,2.608A2.332,2.332,0,0,1,145.4,26.608Zm3.726,0c0-1.071-.466-1.723-1.351-1.723-.838,0-1.351.652-1.351,1.723s.466,1.723,1.351,1.723C148.613,28.285,149.126,27.679,149.126,26.608Z" transform="translate(-117.178 -22.137)"/><path class="c" d="M157.7,27.679c0-.885.652-1.4,1.863-1.49l1.351-.093v-.419c0-.512-.326-.838-1.025-.838-.559,0-.931.186-1.025.559h-.931c.093-.838.885-1.4,2.049-1.4,1.257,0,1.956.605,1.956,1.677v3.4h-.931v-.7h-.093a1.629,1.629,0,0,1-1.49.792A1.539,1.539,0,0,1,157.7,27.679Zm3.213-.419v-.419l-1.211.093c-.7.047-.978.279-.978.7,0,.466.373.7.931.7A1.164,1.164,0,0,0,160.913,27.26Z" transform="translate(-123.75 -22.137)"/><path class="c" d="M169.5,24.471c0-1.583.792-2.561,2.049-2.561a1.64,1.64,0,0,1,1.537.885h.093V20h.978v6.939h-.931v-.792h-.093a1.712,1.712,0,0,1-1.583.885C170.292,27.032,169.5,26.054,169.5,24.471Zm1.025,0c0,1.071.512,1.677,1.351,1.677s1.351-.652,1.351-1.677-.512-1.677-1.351-1.677C171.037,22.748,170.525,23.4,170.525,24.471Z" transform="translate(-130.055 -20)"/><path class="c" d="M188.2,26.608A2.308,2.308,0,0,1,190.529,24c1.444,0,2.329.978,2.329,2.608s-.885,2.608-2.329,2.608A2.332,2.332,0,0,1,188.2,26.608Zm3.679,0c0-1.071-.466-1.723-1.351-1.723-.838,0-1.351.652-1.351,1.723s.466,1.723,1.351,1.723C191.413,28.285,191.879,27.679,191.879,26.608Z" transform="translate(-140.046 -22.137)"/><path class="c" d="M201.1,24.093h.931v.792h.093a1.484,1.484,0,0,1,1.49-.885c1.118,0,1.723.652,1.723,1.863v3.213h-.978V26.1c0-.792-.326-1.211-1.071-1.211a1.139,1.139,0,0,0-1.211,1.257v2.934H201.1Z" transform="translate(-146.938 -22.137)"/><path class="c" d="M220.116,21.6v1.257h1.071v.792h-1.071V26.21c0,.512.233.745.7.745h.373v.838a1.919,1.919,0,0,1-.559.047c-1.071,0-1.537-.373-1.537-1.351V23.7H218.3v-.838h.792V21.6Z" transform="translate(-156.128 -20.855)"/><path class="c" d="M227.4,20h.978v2.748h.093a1.55,1.55,0,0,1,1.537-.885,1.634,1.634,0,0,1,1.723,1.863v3.213h-.978V23.959c0-.792-.373-1.211-1.071-1.211a1.174,1.174,0,0,0-1.257,1.257v2.887h-.978V20Z" transform="translate(-160.99 -20)"/><path class="c" d="M243.824,27.726a2.035,2.035,0,0,1-2.142,1.444c-1.444,0-2.282-.978-2.282-2.561S240.285,24,241.682,24s2.235.931,2.235,2.515v.326h-3.539v.047a1.339,1.339,0,0,0,1.3,1.444,1.138,1.138,0,0,0,1.164-.605Zm-3.446-1.583h2.515a1.2,1.2,0,0,0-1.211-1.3A1.3,1.3,0,0,0,240.378,26.142Z" transform="translate(-167.402 -22.137)"/></g><g transform="translate(10.994 9.64)"><path class="c" d="M40,40.165A5.6,5.6,0,0,1,42.6,35.554a5.486,5.486,0,0,0-4.424-2.375C36.318,32.993,34.5,34.3,33.57,34.3c-.978,0-2.422-1.071-4.005-1.071a5.912,5.912,0,0,0-4.937,3.027c-2.142,3.726-.559,9.128,1.49,12.155,1.025,1.444,2.235,3.12,3.772,3.027,1.537-.047,2.1-.978,3.959-.978,1.816,0,2.375.978,3.959.931,1.63-.047,2.7-1.49,3.679-2.934a12.632,12.632,0,0,0,1.677-3.4A5.416,5.416,0,0,1,40,40.165Z" transform="translate(-23.607 -27.358)"/><path class="c" d="M48.251,24.565A5.164,5.164,0,0,0,49.462,20.7a5.468,5.468,0,0,0-3.539,1.816,5.116,5.116,0,0,0-1.257,3.726A4.468,4.468,0,0,0,48.251,24.565Z" transform="translate(-34.842 -20.7)"/></g><g transform="translate(38.048 19.699)"><path class="c" d="M90.455,53.013H85.193l-1.257,3.726H81.7L86.683,43h2.282l4.983,13.692H91.713Zm-4.7-1.723H89.9l-2.049-6.008H87.8Z" transform="translate(-81.7 -42.674)"/><path class="c" d="M120.154,55.823c0,3.12-1.677,5.123-4.191,5.123a3.424,3.424,0,0,1-3.167-1.77h-.047v4.983H110.7V50.793h2V52.47h.047a3.511,3.511,0,0,1,3.167-1.77C118.477,50.7,120.154,52.7,120.154,55.823Zm-2.1,0c0-2.049-1.071-3.353-2.655-3.353S112.8,53.82,112.8,55.823s1.071,3.353,2.608,3.353C117.034,59.176,118.058,57.872,118.058,55.823Z" transform="translate(-97.194 -46.788)"/><path class="c" d="M143.854,55.823c0,3.12-1.677,5.123-4.191,5.123a3.424,3.424,0,0,1-3.167-1.77h-.047v4.983H134.4V50.793h2V52.47h.047a3.511,3.511,0,0,1,3.167-1.77C142.177,50.7,143.854,52.7,143.854,55.823Zm-2.1,0c0-2.049-1.071-3.353-2.655-3.353S136.5,53.82,136.5,55.823s1.071,3.353,2.608,3.353C140.687,59.176,141.758,57.872,141.758,55.823Z" transform="translate(-109.857 -46.788)"/><path class="c" d="M168.1,52.5c.14,1.351,1.49,2.235,3.307,2.235,1.723,0,2.981-.885,2.981-2.142,0-1.071-.745-1.723-2.515-2.142l-1.77-.419c-2.515-.605-3.679-1.77-3.679-3.726,0-2.375,2.049-4.005,4.983-4.005,2.887,0,4.89,1.63,4.983,4.005h-2.1c-.14-1.351-1.257-2.189-2.934-2.189s-2.794.838-2.794,2.049c0,.978.745,1.537,2.515,2l1.537.373c2.841.652,4.005,1.816,4.005,3.819,0,2.561-2.049,4.191-5.309,4.191-3.027,0-5.123-1.583-5.216-4.052h2Z" transform="translate(-126.794 -42.3)"/><path class="c" d="M193.939,45.8v2.375h1.909v1.63h-1.909v5.542c0,.838.373,1.257,1.211,1.257.233,0,.559-.047.7-.047v1.63a6.859,6.859,0,0,1-1.164.093c-2.049,0-2.841-.745-2.841-2.7V49.805H190.4v-1.63h1.444V45.8h2.1Z" transform="translate(-139.778 -44.17)"/><path class="c" d="M204.5,55.823c0-3.167,1.863-5.123,4.75-5.123s4.75,2,4.75,5.123c0,3.167-1.816,5.123-4.75,5.123S204.5,58.99,204.5,55.823Zm7.4,0c0-2.142-.978-3.446-2.655-3.446s-2.655,1.3-2.655,3.446c0,2.189.978,3.446,2.655,3.446C210.88,59.269,211.9,58.012,211.9,55.823Z" transform="translate(-147.311 -46.788)"/><path class="c" d="M228.5,50.793h1.956v1.723h.047a2.41,2.41,0,0,1,2.422-1.816,2.523,2.523,0,0,1,.7.093V52.7a3.242,3.242,0,0,0-.931-.14,2.069,2.069,0,0,0-2.142,2.282v5.961H228.5Z" transform="translate(-160.134 -46.788)"/><path class="c" d="M249.535,57.872c-.279,1.816-2.049,3.074-4.331,3.074-2.934,0-4.7-1.956-4.7-5.076s1.816-5.169,4.657-5.169c2.794,0,4.517,1.909,4.517,4.936v.7H242.6v.14a2.606,2.606,0,0,0,2.7,2.841,2.3,2.3,0,0,0,2.329-1.4h1.909Zm-6.986-2.981h5.03a2.423,2.423,0,0,0-2.468-2.561A2.647,2.647,0,0,0,242.549,54.891Z" transform="translate(-166.546 -46.788)"/></g></svg>