<svg xmlns="http://www.w3.org/2000/svg" width="946.04" height="369.535" viewBox="0 0 946.04 369.535"><defs><style>.a{fill:none;stroke:#000;stroke-miterlimit:10;stroke-width:2px;}.b{fill:#fff;}.c{fill:#ffe0e0;}.d{fill:#002636;}.e{fill:#f8b1a5;}.f{fill:#f99;}.g{fill:#ffd4d5;}</style></defs><g transform="translate(0 7)"><g transform="translate(488.039 -7)"><line class="a" y2="53.74" transform="translate(125.627 229.387)"/><line class="a" y2="53.74" transform="translate(99.718 229.387)"/><rect width="56.66" height="4.57" rx="2.285" transform="translate(193.832 71.02)"/><path class="b" d="M543.462,475.922v.037a105.653,105.653,0,0,1-211.306-.037h13.062a79.75,79.75,0,0,0,79.739-78.439h0a54.507,54.507,0,0,1,18.6-39.919,60.518,60.518,0,0,1,81.09.92,54.666,54.666,0,0,1,17.53,39l.184,10.679.073,4.566Z" transform="translate(-332.156 -337.135)"/><ellipse cx="5.014" cy="5.014" rx="5.014" ry="5.014" transform="translate(181.357 60.992)"/><path class="b" d="M516.05,340.088l-78.223-5.3,39.111,9.756h-28.65l37.849,14.526Z" transform="translate(-364.64 -334.786)"/><path class="c" d="M2906.357,3299.942c0,27.326,3.782,70.647-23.982,100.593s-94.684-12.72-94.684-12.72h0s18.6-2.113,48.267-24.082S2906.357,3299.942,2906.357,3299.942Z" transform="translate(-2768.191 -3203.793)"/></g><g transform="translate(0 190.521)"><g transform="translate(50.596)"><g transform="matrix(0.391, 0.921, -0.921, 0.391, 739.218, 108.307)"><rect class="d" width="1.162" height="6.924" transform="translate(0.183 16.346) rotate(-99.068)"/><path class="e" d="M19.6,14.412C9.794,15.976,1.021,12.06,0,5.664L35.5,0C36.516,6.395,29.4,12.848,19.6,14.412Z" transform="translate(6.453 9.093)"/><path class="f" d="M35.594,9.093.1,14.756C-.923,8.361,6.2,1.908,16,.344S34.573,2.7,35.594,9.093Z" transform="translate(6.355 0)"/></g><path class="g" d="M895.447,445.1,666.114,479.343,360.346,495.16,0,525.2V412.211l331.359,9.163L652.742,445.1Z" transform="translate(-0.003 -353.182)"/><g transform="translate(230.121 52.448) rotate(-50)"><rect class="d" width="1.892" height="11.275" transform="translate(0.298 26.617) rotate(-99.068)"/><path class="e" d="M31.908,23.468C15.948,26.015,1.662,19.638,0,9.223L57.8,0C59.46,10.413,47.871,20.921,31.908,23.468Z" transform="translate(10.507 14.806)"/><path class="f" d="M57.959,14.806.159,24.029C-1.5,13.615,10.088,3.107,26.048.56S56.3,4.39,57.959,14.806Z" transform="translate(10.348 0)"/></g></g><path class="e" d="M-138.122,3520.479l323.133-26.443,106.881-6.182-92.7-4.7-201.776,4.7-221.427-19.5Z" transform="translate(224.014 -3351.778)"/><g transform="matrix(-0.438, -0.899, 0.899, -0.438, 267.354, 85.794)"><rect class="d" width="1.21" height="34.209" transform="translate(0.191 21.273) rotate(-99.068)"/><path class="e" d="M20.4,15C10.2,16.633,1.063,12.556,0,5.9L36.956,0C38.017,6.658,30.607,13.376,20.4,15Z" transform="translate(33.381 9.466)"/><path class="f" d="M37.057,9.466.1,15.363C-.961,8.705,6.45,1.987,16.654.358S35.994,2.807,37.057,9.466Z" transform="translate(33.279 0)"/></g></g></g></svg>