<svg xmlns="http://www.w3.org/2000/svg" xmlns:xlink="http://www.w3.org/1999/xlink" width="2000" height="1127" viewBox="0 0 2000 1127"><defs><style>.a,.d{fill:none;}.b{fill:rgba(153,51,57,0.6);}.c{fill:rgba(0,0,0,0.08);}.d{stroke:#000;stroke-miterlimit:10;stroke-width:2px;}.e{fill:#f8b1a5;}.f{fill:#f99;}.g{fill:#f6afa3;}.h{fill:#d99a90;opacity:0.53;}.i{clip-path:url(#a);}.j{clip-path:url(#b);}.k{fill:#fff;}.l{clip-path:url(#c);}.m{clip-path:url(#d);}.n{clip-path:url(#e);}.o{clip-path:url(#f);}</style><clipPath id="a"><path class="a" d="M50.36,1.76C45.7,12.34,36.39,21.12,31,32.18,22.08,50.39,17.51,71,12.6,90.35-3.28,152.74-3,214.67,8.46,277.66c7.28,39.77,19.83,101.66,74.94,105.81,53.69,4,92.17-59.84,114-96.13,45.46-75.42,31.78-187-38.45-247.59C138.84,22.37,101.6-5.23,50.36,1.76Z"/></clipPath><clipPath id="b"><path class="a" d="M14.25-8.31,138.29-93.37,229.56,16.88,105.52,101.94Z"/></clipPath><clipPath id="c"><path class="a" d="M105.52,101.94,229.56,16.88l91.28,110.25L196.79,212.18Z"/></clipPath><clipPath id="d"><path class="a" d="M-109.8,76.74,14.25-8.31l91.27,110.25L-18.52,186.99Z"/></clipPath><clipPath id="e"><path class="a" d="M-18.52,186.99l124.04-85.05,91.27,110.24L72.75,297.24Z"/></clipPath><clipPath id="f"><path class="a" d="M-142.56,272.04l124.04-85.05L72.75,297.24-51.29,382.29Z"/></clipPath></defs><g transform="translate(82.423 -4598.255)"><rect class="b" width="1920" height="39" transform="translate(-2.423 5686.255)"/><rect class="c" width="1920" height="13" transform="translate(-2.423 5673.255)"/><g transform="translate(152.298 5211.199)"><path class="d" d="M-1694.348-9565.632c-.987-51.316,4.316-163.82-53.6-268.432" transform="translate(1794.292 10012.68)"/><path class="d" d="M-1699.063-9550.269c-6.375-154.812-2.285-255.781,2.884-334.08" transform="translate(1808 9997.574)"/><path class="d" d="M-1693.878-9582.892c0-135.324,10.107-147.678,29.2-193.719" transform="translate(1810.535 10029.938)"/><g transform="translate(131.257 196.124)"><path class="e" d="M-1678.5-9797.045c-7.533,17.232-4.527,35.188,6.72,40.1l27.282-62.406C-1655.742-9824.264-1670.966-9814.279-1678.5-9797.045Z" transform="translate(1682.651 9820.601)"/><path class="f" d="M-1647.009-9819.639l-27.284,62.406c11.242,4.92,26.468-5.066,34-22.3S-1635.763-9814.723-1647.009-9819.639Z" transform="translate(1685.162 9820.891)"/></g><g transform="translate(78.248)"><path class="e" d="M-1723.211-9915.36c-2.164,32.334,13.185,59.693,34.29,61.107l7.834-117.107C-1702.184-9972.769-1721.047-9947.7-1723.211-9915.36Z" transform="translate(1723.414 9971.417)"/><path class="f" d="M-1689.055-9971.374l-7.835,117.107c21.1,1.416,39.959-23.656,42.123-55.992S-1667.952-9969.962-1689.055-9971.374Z" transform="translate(1731.382 9971.431)"/></g><g transform="translate(0 108.367)"><path class="e" d="M-1776.225-9837.4c11.029,19.814,30.449,30.047,43.383,22.85l-39.943-71.76C-1785.712-9879.117-1787.255-9857.219-1776.225-9837.4Z" transform="translate(1783.586 9888.615)"/><path class="f" d="M-1775.281-9885.782l39.942,71.76c12.929-7.193,14.47-29.092,3.442-48.906S-1762.348-9892.978-1775.281-9885.782Z" transform="translate(1786.081 9888.084)"/></g><path class="g" d="M-1642.577-9577.825h-94.562l-11.634-121.58h117.829Z" transform="translate(1794.044 10053.132)"/><path class="h" d="M-1691.057-9696.7l11.3,118.059h31.159S-1687.8-9636.671-1691.057-9696.7Z" transform="translate(1736.88 10053.946)"/><rect class="g" width="126.141" height="7.04" rx="2.707" transform="translate(41.116 350.207)"/><path class="h" d="M-1748.513-9696.7l.343,3.588H-1631.8l.459-3.588Z" transform="translate(1794.122 10053.945)"/></g><g transform="translate(-82.649 4597.606)"><g class="i"><g class="j"><ellipse class="k" cx="2.87" cy="2.61" rx="2.87" ry="2.61" transform="translate(54.64 37)"/><ellipse class="k" cx="2.87" cy="2.61" rx="2.87" ry="2.61" transform="translate(72.51 42.91)"/><ellipse class="k" cx="2.87" cy="2.61" rx="2.87" ry="2.61" transform="translate(63.07 45.22)"/><ellipse class="k" cx="2.87" cy="2.61" rx="2.87" ry="2.61" transform="translate(64.65 18.79)"/><ellipse class="k" cx="2.87" cy="2.61" rx="2.87" ry="2.61" transform="translate(84.47 34.05)"/><ellipse class="k" cx="2.87" cy="2.61" rx="2.87" ry="2.61" transform="translate(52.18 25.35)"/><ellipse class="k" cx="2.87" cy="2.61" rx="2.87" ry="2.61" transform="translate(67.79 31.25)"/><ellipse class="k" cx="2.87" cy="2.61" rx="2.87" ry="2.61" transform="translate(84.02 48.15)"/><ellipse class="k" cx="2.87" cy="2.61" rx="2.87" ry="2.61" transform="translate(72.4 52.85)"/><ellipse class="k" cx="2.87" cy="2.61" rx="2.87" ry="2.61" transform="translate(83.3 66.01)"/><ellipse class="k" cx="2.87" cy="2.61" rx="2.87" ry="2.61" transform="translate(82.61 20.16)"/><ellipse class="k" cx="2.87" cy="2.61" rx="2.87" ry="2.61" transform="translate(47.27 12.09)"/><ellipse class="k" cx="2.87" cy="2.61" rx="2.87" ry="2.61" transform="translate(106.79 41.75)"/><ellipse class="k" cx="2.87" cy="2.61" rx="2.87" ry="2.61" transform="translate(118.16 28.36)"/><ellipse class="k" cx="2.87" cy="2.61" rx="2.87" ry="2.61" transform="translate(136.02 34.27)"/><ellipse class="k" cx="2.87" cy="2.61" rx="2.87" ry="2.61" transform="translate(128.17 56.06)"/><ellipse class="k" cx="2.87" cy="2.61" rx="2.87" ry="2.61" transform="translate(123.73 39.43)"/><ellipse class="k" cx="2.87" cy="2.61" rx="2.87" ry="2.61" transform="translate(104.96 53.51)"/><ellipse class="k" cx="2.87" cy="2.61" rx="2.87" ry="2.61" transform="translate(94.73 41.16)"/><ellipse class="k" cx="2.87" cy="2.61" rx="2.87" ry="2.61" transform="translate(102.06 26.06)"/><ellipse class="k" cx="2.87" cy="2.61" rx="2.87" ry="2.61" transform="translate(128.17 10.15)"/><ellipse class="k" cx="2.87" cy="2.61" rx="2.87" ry="2.61" transform="translate(147.98 25.41)"/><ellipse class="k" cx="2.87" cy="2.61" rx="2.87" ry="2.61" transform="translate(115.69 16.71)"/><ellipse class="k" cx="2.87" cy="2.61" rx="2.87" ry="2.61" transform="translate(131.31 22.61)"/><ellipse class="k" cx="2.87" cy="2.61" rx="2.87" ry="2.61" transform="translate(147.54 39.51)"/><ellipse class="k" cx="2.87" cy="2.61" rx="2.87" ry="2.61" transform="translate(118.13 49.81)"/><ellipse class="k" cx="2.87" cy="2.61" rx="2.87" ry="2.61" transform="translate(117.28 65.48)"/><ellipse class="k" cx="2.87" cy="2.61" rx="2.87" ry="2.61" transform="translate(135.92 44.21)"/><ellipse class="k" cx="2.87" cy="2.61" rx="2.87" ry="2.61" transform="translate(146.81 57.37)"/><ellipse class="k" cx="2.87" cy="2.61" rx="2.87" ry="2.61" transform="translate(146.13 11.52)"/><ellipse class="k" cx="2.87" cy="2.61" rx="2.87" ry="2.61" transform="translate(101.76 69.58)"/><ellipse class="k" cx="2.87" cy="2.61" rx="2.87" ry="2.61" transform="translate(134.01 67.45)"/><ellipse class="k" cx="2.87" cy="2.61" rx="2.87" ry="2.61" transform="translate(98.78 -0.29)"/><ellipse class="k" cx="2.87" cy="2.61" rx="2.87" ry="2.61" transform="translate(75.57 -2.84)"/><ellipse class="k" cx="2.87" cy="2.61" rx="2.87" ry="2.61" transform="translate(87.89 9.12)"/><ellipse class="k" cx="2.87" cy="2.61" rx="2.87" ry="2.61" transform="translate(117.42 1.02)"/><ellipse class="k" cx="2.87" cy="2.61" rx="2.87" ry="2.61" transform="translate(72.38 13.22)"/><ellipse class="k" cx="2.87" cy="2.61" rx="2.87" ry="2.61" transform="translate(104.62 11.09)"/><ellipse class="k" cx="2.87" cy="2.61" rx="2.87" ry="2.61" transform="translate(136.42 -5.07)"/><ellipse class="k" cx="2.87" cy="2.61" rx="2.87" ry="2.61" transform="translate(168.77 26.35)"/><ellipse class="k" cx="2.87" cy="2.61" rx="2.87" ry="2.61" transform="translate(180.13 12.96)"/><ellipse class="k" cx="2.87" cy="2.61" rx="2.87" ry="2.61" transform="translate(197.99 18.87)"/><ellipse class="k" cx="2.87" cy="2.61" rx="2.87" ry="2.61" transform="translate(104.38 89.74)"/><ellipse class="k" cx="2.87" cy="2.61" rx="2.87" ry="2.61" transform="translate(185.7 24.03)"/><ellipse class="k" cx="2.87" cy="2.61" rx="2.87" ry="2.61" transform="translate(166.93 38.11)"/><ellipse class="k" cx="2.87" cy="2.61" rx="2.87" ry="2.61" transform="translate(156.7 25.75)"/><ellipse class="k" cx="2.87" cy="2.61" rx="2.87" ry="2.61" transform="translate(164.03 10.65)"/><ellipse class="k" cx="2.87" cy="2.61" rx="2.87" ry="2.61" transform="translate(209.95 10.01)"/><ellipse class="k" cx="2.87" cy="2.61" rx="2.87" ry="2.61" transform="translate(177.66 1.31)"/><ellipse class="k" cx="2.87" cy="2.61" rx="2.87" ry="2.61" transform="translate(193.28 7.21)"/><ellipse class="k" cx="2.87" cy="2.61" rx="2.87" ry="2.61" transform="translate(217.07 15.66)"/><ellipse class="k" cx="2.87" cy="2.61" rx="2.87" ry="2.61" transform="translate(180.1 34.4)"/><ellipse class="k" cx="2.87" cy="2.61" rx="2.87" ry="2.61" transform="translate(95.94 79.55)"/><ellipse class="k" cx="2.87" cy="2.61" rx="2.87" ry="2.61" transform="translate(197.89 28.81)"/><ellipse class="k" cx="2.87" cy="2.61" rx="2.87" ry="2.61" transform="translate(124.87 77.56)"/><ellipse class="k" cx="2.87" cy="2.61" rx="2.87" ry="2.61" transform="translate(203.5 -0.74)"/><ellipse class="k" cx="2.87" cy="2.61" rx="2.87" ry="2.61" transform="translate(163.74 54.17)"/><ellipse class="k" cx="2.87" cy="2.61" rx="2.87" ry="2.61" transform="translate(108.26 79.73)"/><ellipse class="k" cx="2.87" cy="2.61" rx="2.87" ry="2.61" transform="translate(32.06 -1.95)"/><ellipse class="k" cx="2.87" cy="2.61" rx="2.87" ry="2.61" transform="translate(154.52 1.2)"/><ellipse class="k" cx="2.87" cy="2.61" rx="2.87" ry="2.61" transform="translate(45.09 -1.29)"/><ellipse class="k" cx="2.87" cy="2.61" rx="2.87" ry="2.61" transform="translate(32.43 9.04)"/><ellipse class="k" cx="2.87" cy="2.61" rx="2.87" ry="2.61" transform="translate(94.05 18.77)"/><ellipse class="k" cx="2.87" cy="2.61" rx="2.87" ry="2.61" transform="translate(173.3 44.34)"/><ellipse class="k" cx="2.87" cy="2.61" rx="2.87" ry="2.61" transform="translate(153.82 47.1)"/><ellipse class="k" cx="2.87" cy="2.61" rx="2.87" ry="2.61" transform="translate(93.45 59.53)"/><ellipse class="k" cx="2.87" cy="2.61" rx="2.87" ry="2.61" transform="translate(58.88 10)"/><ellipse class="k" cx="2.87" cy="2.61" rx="2.87" ry="2.61" transform="translate(62.95 0.25)"/></g><g class="l"><ellipse class="k" cx="2.87" cy="2.61" rx="2.87" ry="2.61" transform="translate(182.77 52.91)"/><ellipse class="k" cx="2.87" cy="2.61" rx="2.87" ry="2.61" transform="translate(145.92 147.25)"/><ellipse class="k" cx="2.87" cy="2.61" rx="2.87" ry="2.61" transform="translate(163.78 153.16)"/><ellipse class="k" cx="2.87" cy="2.61" rx="2.87" ry="2.61" transform="translate(215.9 30.2)"/><ellipse class="k" cx="2.87" cy="2.61" rx="2.87" ry="2.61" transform="translate(154.35 155.47)"/><ellipse class="k" cx="2.87" cy="2.61" rx="2.87" ry="2.61" transform="translate(199.93 54.01)"/><ellipse class="k" cx="2.87" cy="2.61" rx="2.87" ry="2.61" transform="translate(168.49 62.7)"/><ellipse class="k" cx="2.87" cy="2.61" rx="2.87" ry="2.61" transform="translate(155.44 69.67)"/><ellipse class="k" cx="2.87" cy="2.61" rx="2.87" ry="2.61" transform="translate(155.93 129.04)"/><ellipse class="k" cx="2.87" cy="2.61" rx="2.87" ry="2.61" transform="translate(175.74 144.29)"/><ellipse class="k" cx="2.87" cy="2.61" rx="2.87" ry="2.61" transform="translate(143.45 135.6)"/><ellipse class="k" cx="2.87" cy="2.61" rx="2.87" ry="2.61" transform="translate(159.07 141.5)"/><ellipse class="k" cx="2.87" cy="2.61" rx="2.87" ry="2.61" transform="translate(175.3 158.4)"/><ellipse class="k" cx="2.87" cy="2.61" rx="2.87" ry="2.61" transform="translate(217.81 58.02)"/><ellipse class="k" cx="2.87" cy="2.61" rx="2.87" ry="2.61" transform="translate(214.67 43.35)"/><ellipse class="k" cx="2.87" cy="2.61" rx="2.87" ry="2.61" transform="translate(163.68 163.1)"/><ellipse class="k" cx="2.87" cy="2.61" rx="2.87" ry="2.61" transform="translate(174.57 176.26)"/><ellipse class="k" cx="2.87" cy="2.61" rx="2.87" ry="2.61" transform="translate(173.89 130.4)"/><ellipse class="k" cx="2.87" cy="2.61" rx="2.87" ry="2.61" transform="translate(198.84 39.9)"/><ellipse class="k" cx="2.87" cy="2.61" rx="2.87" ry="2.61" transform="translate(138.54 122.34)"/><ellipse class="k" cx="2.87" cy="2.61" rx="2.87" ry="2.61" transform="translate(198.07 152)"/><ellipse class="k" cx="2.87" cy="2.61" rx="2.87" ry="2.61" transform="translate(209.43 138.61)"/><ellipse class="k" cx="2.87" cy="2.61" rx="2.87" ry="2.61" transform="translate(219.44 166.31)"/><ellipse class="k" cx="2.87" cy="2.61" rx="2.87" ry="2.61" transform="translate(215.01 149.68)"/><ellipse class="k" cx="2.87" cy="2.61" rx="2.87" ry="2.61" transform="translate(196.23 163.76)"/><ellipse class="k" cx="2.87" cy="2.61" rx="2.87" ry="2.61" transform="translate(186 151.41)"/><ellipse class="k" cx="2.87" cy="2.61" rx="2.87" ry="2.61" transform="translate(193.34 136.3)"/><ellipse class="k" cx="2.87" cy="2.61" rx="2.87" ry="2.61" transform="translate(219.44 120.4)"/><ellipse class="k" cx="2.87" cy="2.61" rx="2.87" ry="2.61" transform="translate(206.97 126.96)"/><ellipse class="k" cx="2.87" cy="2.61" rx="2.87" ry="2.61" transform="translate(222.58 132.86)"/><ellipse class="k" cx="2.87" cy="2.61" rx="2.87" ry="2.61" transform="translate(209.41 160.05)"/><ellipse class="k" cx="2.87" cy="2.61" rx="2.87" ry="2.61" transform="translate(208.55 175.72)"/><ellipse class="k" cx="2.87" cy="2.61" rx="2.87" ry="2.61" transform="translate(193.04 179.83)"/><ellipse class="k" cx="2.87" cy="2.61" rx="2.87" ry="2.61" transform="translate(168.68 95.64)"/><ellipse class="k" cx="2.87" cy="2.61" rx="2.87" ry="2.61" transform="translate(180.04 82.25)"/><ellipse class="k" cx="2.87" cy="2.61" rx="2.87" ry="2.61" transform="translate(197.91 88.16)"/><ellipse class="k" cx="2.87" cy="2.61" rx="2.87" ry="2.61" transform="translate(190.06 109.95)"/><ellipse class="k" cx="2.87" cy="2.61" rx="2.87" ry="2.61" transform="translate(185.62 93.32)"/><ellipse class="k" cx="2.87" cy="2.61" rx="2.87" ry="2.61" transform="translate(166.85 107.41)"/><ellipse class="k" cx="2.87" cy="2.61" rx="2.87" ry="2.61" transform="translate(156.62 95.05)"/><ellipse class="k" cx="2.87" cy="2.61" rx="2.87" ry="2.61" transform="translate(163.95 79.95)"/><ellipse class="k" cx="2.87" cy="2.61" rx="2.87" ry="2.61" transform="translate(190.05 64.04)"/><ellipse class="k" cx="2.87" cy="2.61" rx="2.87" ry="2.61" transform="translate(209.87 79.3)"/><ellipse class="k" cx="2.87" cy="2.61" rx="2.87" ry="2.61" transform="translate(177.58 70.6)"/><ellipse class="k" cx="2.87" cy="2.61" rx="2.87" ry="2.61" transform="translate(193.19 76.51)"/><ellipse class="k" cx="2.87" cy="2.61" rx="2.87" ry="2.61" transform="translate(209.43 93.4)"/><ellipse class="k" cx="2.87" cy="2.61" rx="2.87" ry="2.61" transform="translate(180.02 103.7)"/><ellipse class="k" cx="2.87" cy="2.61" rx="2.87" ry="2.61" transform="translate(179.16 119.37)"/><ellipse class="k" cx="2.87" cy="2.61" rx="2.87" ry="2.61" transform="translate(197.8 98.11)"/><ellipse class="k" cx="2.87" cy="2.61" rx="2.87" ry="2.61" transform="translate(208.7 111.27)"/><ellipse class="k" cx="2.87" cy="2.61" rx="2.87" ry="2.61" transform="translate(208.01 65.41)"/><ellipse class="k" cx="2.87" cy="2.61" rx="2.87" ry="2.61" transform="translate(163.65 123.47)"/><ellipse class="k" cx="2.87" cy="2.61" rx="2.87" ry="2.61" transform="translate(195.89 121.34)"/><ellipse class="k" cx="2.87" cy="2.61" rx="2.87" ry="2.61" transform="translate(220.66 76.76)"/><ellipse class="k" cx="2.87" cy="2.61" rx="2.87" ry="2.61" transform="translate(195.65 199.99)"/><ellipse class="k" cx="2.87" cy="2.61" rx="2.87" ry="2.61" transform="translate(187.21 189.8)"/><ellipse class="k" cx="2.87" cy="2.61" rx="2.87" ry="2.61" transform="translate(216.14 187.81)"/><ellipse class="k" cx="2.87" cy="2.61" rx="2.87" ry="2.61" transform="translate(199.53 189.98)"/><ellipse class="k" cx="2.87" cy="2.61" rx="2.87" ry="2.61" transform="translate(123.33 108.29)"/><ellipse class="k" cx="2.87" cy="2.61" rx="2.87" ry="2.61" transform="translate(107.7 99.13)"/><ellipse class="k" cx="2.87" cy="2.61" rx="2.87" ry="2.61" transform="translate(137.18 87.7)"/><ellipse class="k" cx="2.87" cy="2.61" rx="2.87" ry="2.61" transform="translate(119.35 93.13)"/><ellipse class="k" cx="2.87" cy="2.61" rx="2.87" ry="2.61" transform="translate(136.36 108.96)"/><ellipse class="k" cx="2.87" cy="2.61" rx="2.87" ry="2.61" transform="translate(123.7 119.28)"/><ellipse class="k" cx="2.87" cy="2.61" rx="2.87" ry="2.61" transform="translate(221.61 95.48)"/><ellipse class="k" cx="2.87" cy="2.61" rx="2.87" ry="2.61" transform="translate(222.6 22.34)"/><ellipse class="k" cx="2.87" cy="2.61" rx="2.87" ry="2.61" transform="translate(185.33 129.01)"/><ellipse class="k" cx="2.87" cy="2.61" rx="2.87" ry="2.61" transform="translate(184.72 169.78)"/><ellipse class="k" cx="2.87" cy="2.61" rx="2.87" ry="2.61" transform="translate(131.18 97.33)"/><ellipse class="k" cx="2.87" cy="2.61" rx="2.87" ry="2.61" transform="translate(148.41 96.77)"/><ellipse class="k" cx="2.87" cy="2.61" rx="2.87" ry="2.61" transform="translate(150.15 120.24)"/><ellipse class="k" cx="2.87" cy="2.61" rx="2.87" ry="2.61" transform="translate(216.31 104.43)"/><ellipse class="k" cx="2.87" cy="2.61" rx="2.87" ry="2.61" transform="translate(141.06 76.26)"/><ellipse class="k" cx="2.87" cy="2.61" rx="2.87" ry="2.61" transform="translate(154.22 110.49)"/><ellipse class="k" cx="2.87" cy="2.61" rx="2.87" ry="2.61" transform="translate(149.15 81.44)"/></g><path class="a" d="M196.79,212.18l124.05-85.05,91.27,110.25L288.07,322.43Z"/><ellipse class="k" cx="2.87" cy="2.61" rx="2.87" ry="2.61" transform="translate(214.6 218.54)"/><ellipse class="k" cx="2.87" cy="2.61" rx="2.87" ry="2.61" transform="translate(198.98 209.37)"/><ellipse class="k" cx="2.87" cy="2.61" rx="2.87" ry="2.61" transform="translate(210.62 203.38)"/><ellipse class="k" cx="2.87" cy="2.61" rx="2.87" ry="2.61" transform="translate(214.98 229.53)"/><ellipse class="k" cx="2.87" cy="2.61" rx="2.87" ry="2.61" transform="translate(222.45 207.57)"/><g class="m"><ellipse class="k" cx="2.87" cy="2.61" rx="2.87" ry="2.61" transform="translate(0.58 5)"/><ellipse class="k" cx="2.87" cy="2.61" rx="2.87" ry="2.61" transform="translate(2.49 32.83)"/><ellipse class="k" cx="2.87" cy="2.61" rx="2.87" ry="2.61" transform="translate(-0.65 18.16)"/><ellipse class="k" cx="2.87" cy="2.61" rx="2.87" ry="2.61" transform="translate(11.98 119.33)"/><ellipse class="k" cx="2.87" cy="2.61" rx="2.87" ry="2.61" transform="translate(4.13 141.11)"/><ellipse class="k" cx="2.87" cy="2.61" rx="2.87" ry="2.61" transform="translate(-0.31 124.49)"/><ellipse class="k" cx="2.87" cy="2.61" rx="2.87" ry="2.61" transform="translate(4.13 95.21)"/><ellipse class="k" cx="2.87" cy="2.61" rx="2.87" ry="2.61" transform="translate(23.94 110.46)"/><ellipse class="k" cx="2.87" cy="2.61" rx="2.87" ry="2.61" transform="translate(7.26 107.67)"/><ellipse class="k" cx="2.87" cy="2.61" rx="2.87" ry="2.61" transform="translate(23.5 124.57)"/><ellipse class="k" cx="2.87" cy="2.61" rx="2.87" ry="2.61" transform="translate(11.87 129.27)"/><ellipse class="k" cx="2.87" cy="2.61" rx="2.87" ry="2.61" transform="translate(22.77 142.43)"/><ellipse class="k" cx="2.87" cy="2.61" rx="2.87" ry="2.61" transform="translate(22.08 96.57)"/><ellipse class="k" cx="2.87" cy="2.61" rx="2.87" ry="2.61" transform="translate(9.96 152.5)"/><ellipse class="k" cx="2.87" cy="2.61" rx="2.87" ry="2.61" transform="translate(-5.45 54.11)"/><ellipse class="k" cx="2.87" cy="2.61" rx="2.87" ry="2.61" transform="translate(17.41 52.16)"/><ellipse class="k" cx="2.87" cy="2.61" rx="2.87" ry="2.61" transform="translate(28.77 38.77)"/><ellipse class="k" cx="2.87" cy="2.61" rx="2.87" ry="2.61" transform="translate(12.11 22.97)"/><ellipse class="k" cx="2.87" cy="2.61" rx="2.87" ry="2.61" transform="translate(46.64 44.68)"/><ellipse class="k" cx="2.87" cy="2.61" rx="2.87" ry="2.61" transform="translate(38.79 66.46)"/><ellipse class="k" cx="2.87" cy="2.61" rx="2.87" ry="2.61" transform="translate(34.35 49.84)"/><ellipse class="k" cx="2.87" cy="2.61" rx="2.87" ry="2.61" transform="translate(15.58 63.92)"/><ellipse class="k" cx="2.87" cy="2.61" rx="2.87" ry="2.61" transform="translate(5.35 51.56)"/><ellipse class="k" cx="2.87" cy="2.61" rx="2.87" ry="2.61" transform="translate(12.68 36.46)"/><ellipse class="k" cx="2.87" cy="2.61" rx="2.87" ry="2.61" transform="translate(13.51 9)"/><ellipse class="k" cx="2.87" cy="2.61" rx="2.87" ry="2.61" transform="translate(68.1 69.22)"/><ellipse class="k" cx="2.87" cy="2.61" rx="2.87" ry="2.61" transform="translate(26.31 27.12)"/><ellipse class="k" cx="2.87" cy="2.61" rx="2.87" ry="2.61" transform="translate(41.92 33.02)"/><ellipse class="k" cx="2.87" cy="2.61" rx="2.87" ry="2.61" transform="translate(58.15 49.92)"/><ellipse class="k" cx="2.87" cy="2.61" rx="2.87" ry="2.61" transform="translate(28.75 60.21)"/><ellipse class="k" cx="2.87" cy="2.61" rx="2.87" ry="2.61" transform="translate(27.89 75.88)"/><ellipse class="k" cx="2.87" cy="2.61" rx="2.87" ry="2.61" transform="translate(46.53 54.62)"/><ellipse class="k" cx="2.87" cy="2.61" rx="2.87" ry="2.61" transform="translate(57.43 67.78)"/><ellipse class="k" cx="2.87" cy="2.61" rx="2.87" ry="2.61" transform="translate(24.96 14.16)"/><ellipse class="k" cx="2.87" cy="2.61" rx="2.87" ry="2.61" transform="translate(12.38 79.98)"/><ellipse class="k" cx="2.87" cy="2.61" rx="2.87" ry="2.61" transform="translate(44.62 77.85)"/><ellipse class="k" cx="2.87" cy="2.61" rx="2.87" ry="2.61" transform="translate(44.72 111.4)"/><ellipse class="k" cx="2.87" cy="2.61" rx="2.87" ry="2.61" transform="translate(56.09 98.01)"/><ellipse class="k" cx="2.87" cy="2.61" rx="2.87" ry="2.61" transform="translate(73.95 103.92)"/><ellipse class="k" cx="2.87" cy="2.61" rx="2.87" ry="2.61" transform="translate(61.66 109.08)"/><ellipse class="k" cx="2.87" cy="2.61" rx="2.87" ry="2.61" transform="translate(42.89 123.16)"/><ellipse class="k" cx="2.87" cy="2.61" rx="2.87" ry="2.61" transform="translate(32.66 110.81)"/><ellipse class="k" cx="2.87" cy="2.61" rx="2.87" ry="2.61" transform="translate(39.99 95.71)"/><ellipse class="k" cx="2.87" cy="2.61" rx="2.87" ry="2.61" transform="translate(66.1 79.8)"/><ellipse class="k" cx="2.87" cy="2.61" rx="2.87" ry="2.61" transform="translate(85.91 95.06)"/><ellipse class="k" cx="2.87" cy="2.61" rx="2.87" ry="2.61" transform="translate(53.62 86.36)"/><ellipse class="k" cx="2.87" cy="2.61" rx="2.87" ry="2.61" transform="translate(69.23 92.26)"/><ellipse class="k" cx="2.87" cy="2.61" rx="2.87" ry="2.61" transform="translate(93.03 100.71)"/><ellipse class="k" cx="2.87" cy="2.61" rx="2.87" ry="2.61" transform="translate(56.06 119.45)"/><ellipse class="k" cx="2.87" cy="2.61" rx="2.87" ry="2.61" transform="translate(73.84 113.86)"/><ellipse class="k" cx="2.87" cy="2.61" rx="2.87" ry="2.61" transform="translate(0.82 162.61)"/><ellipse class="k" cx="2.87" cy="2.61" rx="2.87" ry="2.61" transform="translate(79.46 84.32)"/><ellipse class="k" cx="2.87" cy="2.61" rx="2.87" ry="2.61" transform="translate(39.69 139.23)"/><ellipse class="k" cx="2.87" cy="2.61" rx="2.87" ry="2.61" transform="translate(30.48 86.26)"/><ellipse class="k" cx="2.87" cy="2.61" rx="2.87" ry="2.61" transform="translate(6.29 70.29)"/><ellipse class="k" cx="2.87" cy="2.61" rx="2.87" ry="2.61" transform="translate(7.28 -2.86)"/><ellipse class="k" cx="2.87" cy="2.61" rx="2.87" ry="2.61" transform="translate(49.26 129.4)"/><ellipse class="k" cx="2.87" cy="2.61" rx="2.87" ry="2.61" transform="translate(29.78 132.15)"/><ellipse class="k" cx="2.87" cy="2.61" rx="2.87" ry="2.61" transform="translate(1 79.24)"/></g><g class="n"><ellipse class="k" cx="2.87" cy="2.61" rx="2.87" ry="2.61" transform="translate(58.73 137.96)"/><ellipse class="k" cx="2.87" cy="2.61" rx="2.87" ry="2.61" transform="translate(21.87 232.3)"/><ellipse class="k" cx="2.87" cy="2.61" rx="2.87" ry="2.61" transform="translate(39.74 238.21)"/><ellipse class="k" cx="2.87" cy="2.61" rx="2.87" ry="2.61" transform="translate(91.86 115.25)"/><ellipse class="k" cx="2.87" cy="2.61" rx="2.87" ry="2.61" transform="translate(30.31 240.52)"/><ellipse class="k" cx="2.87" cy="2.61" rx="2.87" ry="2.61" transform="translate(75.88 139.06)"/><ellipse class="k" cx="2.87" cy="2.61" rx="2.87" ry="2.61" transform="translate(44.45 147.76)"/><ellipse class="k" cx="2.87" cy="2.61" rx="2.87" ry="2.61" transform="translate(31.39 154.72)"/><ellipse class="k" cx="2.87" cy="2.61" rx="2.87" ry="2.61" transform="translate(31.89 214.09)"/><ellipse class="k" cx="2.87" cy="2.61" rx="2.87" ry="2.61" transform="translate(51.7 229.35)"/><ellipse class="k" cx="2.87" cy="2.61" rx="2.87" ry="2.61" transform="translate(19.41 220.65)"/><ellipse class="k" cx="2.87" cy="2.61" rx="2.87" ry="2.61" transform="translate(35.02 226.55)"/><ellipse class="k" cx="2.87" cy="2.61" rx="2.87" ry="2.61" transform="translate(51.26 243.45)"/><ellipse class="k" cx="2.87" cy="2.61" rx="2.87" ry="2.61" transform="translate(93.77 143.08)"/><ellipse class="k" cx="2.87" cy="2.61" rx="2.87" ry="2.61" transform="translate(90.63 128.4)"/><ellipse class="k" cx="2.87" cy="2.61" rx="2.87" ry="2.61" transform="translate(39.63 248.15)"/><ellipse class="k" cx="2.87" cy="2.61" rx="2.87" ry="2.61" transform="translate(50.53 261.31)"/><ellipse class="k" cx="2.87" cy="2.61" rx="2.87" ry="2.61" transform="translate(49.84 215.46)"/><ellipse class="k" cx="2.87" cy="2.61" rx="2.87" ry="2.61" transform="translate(74.8 124.95)"/><ellipse class="k" cx="2.87" cy="2.61" rx="2.87" ry="2.61" transform="translate(14.5 207.39)"/><ellipse class="k" cx="2.87" cy="2.61" rx="2.87" ry="2.61" transform="translate(74.03 237.05)"/><ellipse class="k" cx="2.87" cy="2.61" rx="2.87" ry="2.61" transform="translate(85.39 223.66)"/><ellipse class="k" cx="2.87" cy="2.61" rx="2.87" ry="2.61" transform="translate(103.25 229.57)"/><ellipse class="k" cx="2.87" cy="2.61" rx="2.87" ry="2.61" transform="translate(95.4 251.36)"/><ellipse class="k" cx="2.87" cy="2.61" rx="2.87" ry="2.61" transform="translate(90.96 234.73)"/><ellipse class="k" cx="2.87" cy="2.61" rx="2.87" ry="2.61" transform="translate(72.19 248.82)"/><ellipse class="k" cx="2.87" cy="2.61" rx="2.87" ry="2.61" transform="translate(61.96 236.46)"/><ellipse class="k" cx="2.87" cy="2.61" rx="2.87" ry="2.61" transform="translate(69.3 221.36)"/><ellipse class="k" cx="2.87" cy="2.61" rx="2.87" ry="2.61" transform="translate(95.4 205.45)"/><ellipse class="k" cx="2.87" cy="2.61" rx="2.87" ry="2.61" transform="translate(115.21 220.71)"/><ellipse class="k" cx="2.87" cy="2.61" rx="2.87" ry="2.61" transform="translate(82.92 212.01)"/><ellipse class="k" cx="2.87" cy="2.61" rx="2.87" ry="2.61" transform="translate(98.54 217.92)"/><ellipse class="k" cx="2.87" cy="2.61" rx="2.87" ry="2.61" transform="translate(114.77 234.81)"/><ellipse class="k" cx="2.87" cy="2.61" rx="2.87" ry="2.61" transform="translate(85.37 245.11)"/><ellipse class="k" cx="2.87" cy="2.61" rx="2.87" ry="2.61" transform="translate(84.51 260.78)"/><ellipse class="k" cx="2.87" cy="2.61" rx="2.87" ry="2.61" transform="translate(103.15 239.52)"/><ellipse class="k" cx="2.87" cy="2.61" rx="2.87" ry="2.61" transform="translate(114.04 252.68)"/><ellipse class="k" cx="2.87" cy="2.61" rx="2.87" ry="2.61" transform="translate(113.36 206.82)"/><ellipse class="k" cx="2.87" cy="2.61" rx="2.87" ry="2.61" transform="translate(69 264.88)"/><ellipse class="k" cx="2.87" cy="2.61" rx="2.87" ry="2.61" transform="translate(101.24 262.75)"/><ellipse class="k" cx="2.87" cy="2.61" rx="2.87" ry="2.61" transform="translate(44.64 180.7)"/><ellipse class="k" cx="2.87" cy="2.61" rx="2.87" ry="2.61" transform="translate(56 167.31)"/><ellipse class="k" cx="2.87" cy="2.61" rx="2.87" ry="2.61" transform="translate(73.87 173.22)"/><ellipse class="k" cx="2.87" cy="2.61" rx="2.87" ry="2.61" transform="translate(66.01 195.01)"/><ellipse class="k" cx="2.87" cy="2.61" rx="2.87" ry="2.61" transform="translate(61.58 178.38)"/><ellipse class="k" cx="2.87" cy="2.61" rx="2.87" ry="2.61" transform="translate(42.8 192.46)"/><ellipse class="k" cx="2.87" cy="2.61" rx="2.87" ry="2.61" transform="translate(32.57 180.1)"/><ellipse class="k" cx="2.87" cy="2.61" rx="2.87" ry="2.61" transform="translate(39.91 165)"/><ellipse class="k" cx="2.87" cy="2.61" rx="2.87" ry="2.61" transform="translate(66.01 149.1)"/><ellipse class="k" cx="2.87" cy="2.61" rx="2.87" ry="2.61" transform="translate(85.82 164.35)"/><ellipse class="k" cx="2.87" cy="2.61" rx="2.87" ry="2.61" transform="translate(53.54 155.66)"/><ellipse class="k" cx="2.87" cy="2.61" rx="2.87" ry="2.61" transform="translate(69.15 161.56)"/><ellipse class="k" cx="2.87" cy="2.61" rx="2.87" ry="2.61" transform="translate(85.38 178.46)"/><ellipse class="k" cx="2.87" cy="2.61" rx="2.87" ry="2.61" transform="translate(55.98 188.75)"/><ellipse class="k" cx="2.87" cy="2.61" rx="2.87" ry="2.61" transform="translate(55.12 204.42)"/><ellipse class="k" cx="2.87" cy="2.61" rx="2.87" ry="2.61" transform="translate(73.76 183.16)"/><ellipse class="k" cx="2.87" cy="2.61" rx="2.87" ry="2.61" transform="translate(84.66 196.32)"/><ellipse class="k" cx="2.87" cy="2.61" rx="2.87" ry="2.61" transform="translate(83.97 150.46)"/><ellipse class="k" cx="2.87" cy="2.61" rx="2.87" ry="2.61" transform="translate(39.61 208.52)"/><ellipse class="k" cx="2.87" cy="2.61" rx="2.87" ry="2.61" transform="translate(71.85 206.39)"/><ellipse class="k" cx="2.87" cy="2.61" rx="2.87" ry="2.61" transform="translate(108.68 162.4)"/><ellipse class="k" cx="2.87" cy="2.61" rx="2.87" ry="2.61" transform="translate(120.05 149.01)"/><ellipse class="k" cx="2.87" cy="2.61" rx="2.87" ry="2.61" transform="translate(103.38 133.22)"/><ellipse class="k" cx="2.87" cy="2.61" rx="2.87" ry="2.61" transform="translate(137.91 154.92)"/><ellipse class="k" cx="2.87" cy="2.61" rx="2.87" ry="2.61" transform="translate(130.06 176.71)"/><ellipse class="k" cx="2.87" cy="2.61" rx="2.87" ry="2.61" transform="translate(125.62 160.08)"/><ellipse class="k" cx="2.87" cy="2.61" rx="2.87" ry="2.61" transform="translate(106.85 174.16)"/><ellipse class="k" cx="2.87" cy="2.61" rx="2.87" ry="2.61" transform="translate(96.62 161.81)"/><ellipse class="k" cx="2.87" cy="2.61" rx="2.87" ry="2.61" transform="translate(103.95 146.71)"/><ellipse class="k" cx="2.87" cy="2.61" rx="2.87" ry="2.61" transform="translate(104.78 119.24)"/><ellipse class="k" cx="2.87" cy="2.61" rx="2.87" ry="2.61" transform="translate(159.38 179.47)"/><ellipse class="k" cx="2.87" cy="2.61" rx="2.87" ry="2.61" transform="translate(117.58 137.36)"/><ellipse class="k" cx="2.87" cy="2.61" rx="2.87" ry="2.61" transform="translate(133.2 143.26)"/><ellipse class="k" cx="2.87" cy="2.61" rx="2.87" ry="2.61" transform="translate(149.43 160.16)"/><ellipse class="k" cx="2.87" cy="2.61" rx="2.87" ry="2.61" transform="translate(120.02 170.46)"/><ellipse class="k" cx="2.87" cy="2.61" rx="2.87" ry="2.61" transform="translate(119.17 186.13)"/><ellipse class="k" cx="2.87" cy="2.61" rx="2.87" ry="2.61" transform="translate(137.81 164.86)"/><ellipse class="k" cx="2.87" cy="2.61" rx="2.87" ry="2.61" transform="translate(148.7 178.02)"/><ellipse class="k" cx="2.87" cy="2.61" rx="2.87" ry="2.61" transform="translate(116.23 124.4)"/><ellipse class="k" cx="2.87" cy="2.61" rx="2.87" ry="2.61" transform="translate(103.65 190.23)"/><ellipse class="k" cx="2.87" cy="2.61" rx="2.87" ry="2.61" transform="translate(135.9 188.1)"/><ellipse class="k" cx="2.87" cy="2.61" rx="2.87" ry="2.61" transform="translate(136 221.65)"/><ellipse class="k" cx="2.87" cy="2.61" rx="2.87" ry="2.61" transform="translate(147.36 208.26)"/><ellipse class="k" cx="2.87" cy="2.61" rx="2.87" ry="2.61" transform="translate(165.22 214.17)"/><ellipse class="k" cx="2.87" cy="2.61" rx="2.87" ry="2.61" transform="translate(71.61 285.04)"/><ellipse class="k" cx="2.87" cy="2.61" rx="2.87" ry="2.61" transform="translate(152.93 219.33)"/><ellipse class="k" cx="2.87" cy="2.61" rx="2.87" ry="2.61" transform="translate(134.16 233.41)"/><ellipse class="k" cx="2.87" cy="2.61" rx="2.87" ry="2.61" transform="translate(123.93 221.06)"/><ellipse class="k" cx="2.87" cy="2.61" rx="2.87" ry="2.61" transform="translate(131.26 205.95)"/><ellipse class="k" cx="2.87" cy="2.61" rx="2.87" ry="2.61" transform="translate(157.37 190.05)"/><ellipse class="k" cx="2.87" cy="2.61" rx="2.87" ry="2.61" transform="translate(177.18 205.31)"/><ellipse class="k" cx="2.87" cy="2.61" rx="2.87" ry="2.61" transform="translate(144.89 196.61)"/><ellipse class="k" cx="2.87" cy="2.61" rx="2.87" ry="2.61" transform="translate(160.51 202.51)"/><ellipse class="k" cx="2.87" cy="2.61" rx="2.87" ry="2.61" transform="translate(184.3 210.96)"/><ellipse class="k" cx="2.87" cy="2.61" rx="2.87" ry="2.61" transform="translate(147.34 229.7)"/><ellipse class="k" cx="2.87" cy="2.61" rx="2.87" ry="2.61" transform="translate(63.17 274.85)"/><ellipse class="k" cx="2.87" cy="2.61" rx="2.87" ry="2.61" transform="translate(165.12 224.11)"/><ellipse class="k" cx="2.87" cy="2.61" rx="2.87" ry="2.61" transform="translate(92.1 272.86)"/><ellipse class="k" cx="2.87" cy="2.61" rx="2.87" ry="2.61" transform="translate(170.73 194.57)"/><ellipse class="k" cx="2.87" cy="2.61" rx="2.87" ry="2.61" transform="translate(130.97 249.47)"/><ellipse class="k" cx="2.87" cy="2.61" rx="2.87" ry="2.61" transform="translate(75.49 275.04)"/><ellipse class="k" cx="2.87" cy="2.61" rx="2.87" ry="2.61" transform="translate(-0.71 193.35)"/><ellipse class="k" cx="2.87" cy="2.61" rx="2.87" ry="2.61" transform="translate(121.75 196.5)"/><ellipse class="k" cx="2.87" cy="2.61" rx="2.87" ry="2.61" transform="translate(13.14 172.75)"/><ellipse class="k" cx="2.87" cy="2.61" rx="2.87" ry="2.61" transform="translate(-4.69 178.19)"/><ellipse class="k" cx="2.87" cy="2.61" rx="2.87" ry="2.61" transform="translate(12.32 194.01)"/><ellipse class="k" cx="2.87" cy="2.61" rx="2.87" ry="2.61" transform="translate(-0.34 204.34)"/><ellipse class="k" cx="2.87" cy="2.61" rx="2.87" ry="2.61" transform="translate(97.56 180.53)"/><ellipse class="k" cx="2.87" cy="2.61" rx="2.87" ry="2.61" transform="translate(98.56 107.39)"/><ellipse class="k" cx="2.87" cy="2.61" rx="2.87" ry="2.61" transform="translate(61.28 214.07)"/><ellipse class="k" cx="2.87" cy="2.61" rx="2.87" ry="2.61" transform="translate(140.54 239.65)"/><ellipse class="k" cx="2.87" cy="2.61" rx="2.87" ry="2.61" transform="translate(121.05 242.4)"/><ellipse class="k" cx="2.87" cy="2.61" rx="2.87" ry="2.61" transform="translate(60.68 254.83)"/><ellipse class="k" cx="2.87" cy="2.61" rx="2.87" ry="2.61" transform="translate(7.14 182.38)"/><ellipse class="k" cx="2.87" cy="2.61" rx="2.87" ry="2.61" transform="translate(24.37 181.83)"/><ellipse class="k" cx="2.87" cy="2.61" rx="2.87" ry="2.61" transform="translate(26.11 205.3)"/><ellipse class="k" cx="2.87" cy="2.61" rx="2.87" ry="2.61" transform="translate(92.27 189.49)"/><ellipse class="k" cx="2.87" cy="2.61" rx="2.87" ry="2.61" transform="translate(17.02 161.31)"/><ellipse class="k" cx="2.87" cy="2.61" rx="2.87" ry="2.61" transform="translate(30.18 195.55)"/><ellipse class="k" cx="2.87" cy="2.61" rx="2.87" ry="2.61" transform="translate(25.1 166.49)"/></g><path class="a" d="M72.75,297.24l124.04-85.06,91.28,110.25L164.03,407.48Z"/><ellipse class="k" cx="2.87" cy="2.61" rx="2.87" ry="2.61" transform="translate(150 248.21)"/><ellipse class="k" cx="2.87" cy="2.61" rx="2.87" ry="2.61" transform="translate(113.15 342.55)"/><ellipse class="k" cx="2.87" cy="2.61" rx="2.87" ry="2.61" transform="translate(131.01 348.46)"/><ellipse class="k" cx="2.87" cy="2.61" rx="2.87" ry="2.61" transform="translate(183.13 225.5)"/><ellipse class="k" cx="2.87" cy="2.61" rx="2.87" ry="2.61" transform="translate(121.58 350.77)"/><ellipse class="k" cx="2.87" cy="2.61" rx="2.87" ry="2.61" transform="translate(167.16 249.31)"/><ellipse class="k" cx="2.87" cy="2.61" rx="2.87" ry="2.61" transform="translate(135.72 258)"/><ellipse class="k" cx="2.87" cy="2.61" rx="2.87" ry="2.61" transform="translate(122.67 264.97)"/><ellipse class="k" cx="2.87" cy="2.61" rx="2.87" ry="2.61" transform="translate(123.16 324.34)"/><ellipse class="k" cx="2.87" cy="2.61" rx="2.87" ry="2.61" transform="translate(142.97 339.59)"/><ellipse class="k" cx="2.87" cy="2.61" rx="2.87" ry="2.61" transform="translate(110.68 330.9)"/><ellipse class="k" cx="2.87" cy="2.61" rx="2.87" ry="2.61" transform="translate(126.3 336.8)"/><ellipse class="k" cx="2.87" cy="2.61" rx="2.87" ry="2.61" transform="translate(142.53 353.7)"/><ellipse class="k" cx="2.87" cy="2.61" rx="2.87" ry="2.61" transform="translate(185.04 253.32)"/><ellipse class="k" cx="2.87" cy="2.61" rx="2.87" ry="2.61" transform="translate(181.9 238.65)"/><ellipse class="k" cx="2.87" cy="2.61" rx="2.87" ry="2.61" transform="translate(130.91 358.4)"/><ellipse class="k" cx="2.87" cy="2.61" rx="2.87" ry="2.61" transform="translate(141.8 371.56)"/><ellipse class="k" cx="2.87" cy="2.61" rx="2.87" ry="2.61" transform="translate(141.12 325.7)"/><ellipse class="k" cx="2.87" cy="2.61" rx="2.87" ry="2.61" transform="translate(166.08 235.2)"/><ellipse class="k" cx="2.87" cy="2.61" rx="2.87" ry="2.61" transform="translate(105.77 317.64)"/><ellipse class="k" cx="2.87" cy="2.61" rx="2.87" ry="2.61" transform="translate(165.3 347.3)"/><ellipse class="k" cx="2.87" cy="2.61" rx="2.87" ry="2.61" transform="translate(176.66 333.91)"/><ellipse class="k" cx="2.87" cy="2.61" rx="2.87" ry="2.61" transform="translate(194.53 339.82)"/><ellipse class="k" cx="2.87" cy="2.61" rx="2.87" ry="2.61" transform="translate(186.67 361.61)"/><ellipse class="k" cx="2.87" cy="2.61" rx="2.87" ry="2.61" transform="translate(182.24 344.98)"/><ellipse class="k" cx="2.87" cy="2.61" rx="2.87" ry="2.61" transform="translate(163.46 359.06)"/><ellipse class="k" cx="2.87" cy="2.61" rx="2.87" ry="2.61" transform="translate(153.24 346.71)"/><ellipse class="k" cx="2.87" cy="2.61" rx="2.87" ry="2.61" transform="translate(160.57 331.61)"/><ellipse class="k" cx="2.87" cy="2.61" rx="2.87" ry="2.61" transform="translate(186.67 315.7)"/><ellipse class="k" cx="2.87" cy="2.61" rx="2.87" ry="2.61" transform="translate(206.48 330.96)"/><ellipse class="k" cx="2.87" cy="2.61" rx="2.87" ry="2.61" transform="translate(174.2 322.26)"/><ellipse class="k" cx="2.87" cy="2.61" rx="2.87" ry="2.61" transform="translate(189.81 328.16)"/><ellipse class="k" cx="2.87" cy="2.61" rx="2.87" ry="2.61" transform="translate(206.04 345.06)"/><ellipse class="k" cx="2.87" cy="2.61" rx="2.87" ry="2.61" transform="translate(176.64 355.35)"/><ellipse class="k" cx="2.87" cy="2.61" rx="2.87" ry="2.61" transform="translate(175.78 371.02)"/><ellipse class="k" cx="2.87" cy="2.61" rx="2.87" ry="2.61" transform="translate(194.42 349.76)"/><ellipse class="k" cx="2.87" cy="2.61" rx="2.87" ry="2.61" transform="translate(205.32 362.92)"/><ellipse class="k" cx="2.87" cy="2.61" rx="2.87" ry="2.61" transform="translate(204.63 317.07)"/><ellipse class="k" cx="2.87" cy="2.61" rx="2.87" ry="2.61" transform="translate(160.27 375.13)"/><ellipse class="k" cx="2.87" cy="2.61" rx="2.87" ry="2.61" transform="translate(192.51 372.99)"/><ellipse class="k" cx="2.87" cy="2.61" rx="2.87" ry="2.61" transform="translate(135.91 290.95)"/><ellipse class="k" cx="2.87" cy="2.61" rx="2.87" ry="2.61" transform="translate(147.28 277.55)"/><ellipse class="k" cx="2.87" cy="2.61" rx="2.87" ry="2.61" transform="translate(165.14 283.47)"/><ellipse class="k" cx="2.87" cy="2.61" rx="2.87" ry="2.61" transform="translate(157.29 305.25)"/><ellipse class="k" cx="2.87" cy="2.61" rx="2.87" ry="2.61" transform="translate(152.85 288.62)"/><ellipse class="k" cx="2.87" cy="2.61" rx="2.87" ry="2.61" transform="translate(134.08 302.71)"/><ellipse class="k" cx="2.87" cy="2.61" rx="2.87" ry="2.61" transform="translate(123.85 290.35)"/><ellipse class="k" cx="2.87" cy="2.61" rx="2.87" ry="2.61" transform="translate(131.18 275.25)"/><ellipse class="k" cx="2.87" cy="2.61" rx="2.87" ry="2.61" transform="translate(157.29 259.34)"/><ellipse class="k" cx="2.87" cy="2.61" rx="2.87" ry="2.61" transform="translate(177.1 274.6)"/><ellipse class="k" cx="2.87" cy="2.61" rx="2.87" ry="2.61" transform="translate(144.81 265.91)"/><ellipse class="k" cx="2.87" cy="2.61" rx="2.87" ry="2.61" transform="translate(160.42 271.81)"/><ellipse class="k" cx="2.87" cy="2.61" rx="2.87" ry="2.61" transform="translate(176.66 288.7)"/><ellipse class="k" cx="2.87" cy="2.61" rx="2.87" ry="2.61" transform="translate(147.25 299)"/><ellipse class="k" cx="2.87" cy="2.61" rx="2.87" ry="2.61" transform="translate(146.39 314.67)"/><ellipse class="k" cx="2.87" cy="2.61" rx="2.87" ry="2.61" transform="translate(165.03 293.41)"/><ellipse class="k" cx="2.87" cy="2.61" rx="2.87" ry="2.61" transform="translate(175.93 306.57)"/><ellipse class="k" cx="2.87" cy="2.61" rx="2.87" ry="2.61" transform="translate(175.24 260.71)"/><ellipse class="k" cx="2.87" cy="2.61" rx="2.87" ry="2.61" transform="translate(130.88 318.77)"/><ellipse class="k" cx="2.87" cy="2.61" rx="2.87" ry="2.61" transform="translate(163.12 316.64)"/><ellipse class="k" cx="2.87" cy="2.61" rx="2.87" ry="2.61" transform="translate(199.96 272.65)"/><ellipse class="k" cx="2.87" cy="2.61" rx="2.87" ry="2.61" transform="translate(211.32 259.26)"/><ellipse class="k" cx="2.87" cy="2.61" rx="2.87" ry="2.61" transform="translate(194.65 243.47)"/><ellipse class="k" cx="2.87" cy="2.61" rx="2.87" ry="2.61" transform="translate(221.33 286.96)"/><ellipse class="k" cx="2.87" cy="2.61" rx="2.87" ry="2.61" transform="translate(216.9 270.33)"/><ellipse class="k" cx="2.87" cy="2.61" rx="2.87" ry="2.61" transform="translate(198.12 284.41)"/><ellipse class="k" cx="2.87" cy="2.61" rx="2.87" ry="2.61" transform="translate(187.89 272.06)"/><ellipse class="k" cx="2.87" cy="2.61" rx="2.87" ry="2.61" transform="translate(195.23 256.95)"/><ellipse class="k" cx="2.87" cy="2.61" rx="2.87" ry="2.61" transform="translate(196.06 229.49)"/><ellipse class="k" cx="2.87" cy="2.61" rx="2.87" ry="2.61" transform="translate(208.86 247.61)"/><ellipse class="k" cx="2.87" cy="2.61" rx="2.87" ry="2.61" transform="translate(211.3 280.7)"/><ellipse class="k" cx="2.87" cy="2.61" rx="2.87" ry="2.61" transform="translate(210.44 296.37)"/><ellipse class="k" cx="2.87" cy="2.61" rx="2.87" ry="2.61" transform="translate(207.51 234.65)"/><ellipse class="k" cx="2.87" cy="2.61" rx="2.87" ry="2.61" transform="translate(194.93 300.48)"/><ellipse class="k" cx="2.87" cy="2.61" rx="2.87" ry="2.61" transform="translate(215.2 331.3)"/><ellipse class="k" cx="2.87" cy="2.61" rx="2.87" ry="2.61" transform="translate(222.54 316.2)"/><ellipse class="k" cx="2.87" cy="2.61" rx="2.87" ry="2.61" transform="translate(183.37 383.11)"/><ellipse class="k" cx="2.87" cy="2.61" rx="2.87" ry="2.61" transform="translate(222.24 359.72)"/><ellipse class="k" cx="2.87" cy="2.61" rx="2.87" ry="2.61" transform="translate(90.56 303.59)"/><ellipse class="k" cx="2.87" cy="2.61" rx="2.87" ry="2.61" transform="translate(74.93 294.43)"/><ellipse class="k" cx="2.87" cy="2.61" rx="2.87" ry="2.61" transform="translate(213.03 306.75)"/><ellipse class="k" cx="2.87" cy="2.61" rx="2.87" ry="2.61" transform="translate(104.41 283)"/><ellipse class="k" cx="2.87" cy="2.61" rx="2.87" ry="2.61" transform="translate(86.58 288.43)"/><ellipse class="k" cx="2.87" cy="2.61" rx="2.87" ry="2.61" transform="translate(103.59 304.26)"/><ellipse class="k" cx="2.87" cy="2.61" rx="2.87" ry="2.61" transform="translate(90.93 314.59)"/><ellipse class="k" cx="2.87" cy="2.61" rx="2.87" ry="2.61" transform="translate(188.84 290.78)"/><ellipse class="k" cx="2.87" cy="2.61" rx="2.87" ry="2.61" transform="translate(189.83 217.64)"/><ellipse class="k" cx="2.87" cy="2.61" rx="2.87" ry="2.61" transform="translate(152.56 324.31)"/><ellipse class="k" cx="2.87" cy="2.61" rx="2.87" ry="2.61" transform="translate(212.32 352.65)"/><ellipse class="k" cx="2.87" cy="2.61" rx="2.87" ry="2.61" transform="translate(151.95 365.08)"/><ellipse class="k" cx="2.87" cy="2.61" rx="2.87" ry="2.61" transform="translate(98.41 292.63)"/><ellipse class="k" cx="2.87" cy="2.61" rx="2.87" ry="2.61" transform="translate(115.64 292.08)"/><ellipse class="k" cx="2.87" cy="2.61" rx="2.87" ry="2.61" transform="translate(117.39 315.54)"/><ellipse class="k" cx="2.87" cy="2.61" rx="2.87" ry="2.61" transform="translate(183.54 299.73)"/><ellipse class="k" cx="2.87" cy="2.61" rx="2.87" ry="2.61" transform="translate(108.29 271.56)"/><ellipse class="k" cx="2.87" cy="2.61" rx="2.87" ry="2.61" transform="translate(121.45 305.79)"/><ellipse class="k" cx="2.87" cy="2.61" rx="2.87" ry="2.61" transform="translate(116.38 276.74)"/><g class="o"><ellipse class="k" cx="2.87" cy="2.61" rx="2.87" ry="2.61" transform="translate(-4 234.07)"/><ellipse class="k" cx="2.87" cy="2.61" rx="2.87" ry="2.61" transform="translate(13.87 239.98)"/><ellipse class="k" cx="2.87" cy="2.61" rx="2.87" ry="2.61" transform="translate(6.02 261.76)"/><ellipse class="k" cx="2.87" cy="2.61" rx="2.87" ry="2.61" transform="translate(1.58 245.14)"/><ellipse class="k" cx="2.87" cy="2.61" rx="2.87" ry="2.61" transform="translate(35.33 264.52)"/><ellipse class="k" cx="2.87" cy="2.61" rx="2.87" ry="2.61" transform="translate(9.15 228.32)"/><ellipse class="k" cx="2.87" cy="2.61" rx="2.87" ry="2.61" transform="translate(25.38 245.22)"/><ellipse class="k" cx="2.87" cy="2.61" rx="2.87" ry="2.61" transform="translate(-4.02 255.51)"/><ellipse class="k" cx="2.87" cy="2.61" rx="2.87" ry="2.61" transform="translate(-4.88 271.18)"/><ellipse class="k" cx="2.87" cy="2.61" rx="2.87" ry="2.61" transform="translate(13.76 249.92)"/><ellipse class="k" cx="2.87" cy="2.61" rx="2.87" ry="2.61" transform="translate(24.66 263.08)"/><ellipse class="k" cx="2.87" cy="2.61" rx="2.87" ry="2.61" transform="translate(11.85 273.15)"/><ellipse class="k" cx="2.87" cy="2.61" rx="2.87" ry="2.61" transform="translate(11.95 306.7)"/><ellipse class="k" cx="2.87" cy="2.61" rx="2.87" ry="2.61" transform="translate(23.32 293.31)"/><ellipse class="k" cx="2.87" cy="2.61" rx="2.87" ry="2.61" transform="translate(41.18 299.22)"/><ellipse class="k" cx="2.87" cy="2.61" rx="2.87" ry="2.61" transform="translate(28.89 304.38)"/><ellipse class="k" cx="2.87" cy="2.61" rx="2.87" ry="2.61" transform="translate(10.12 318.47)"/><ellipse class="k" cx="2.87" cy="2.61" rx="2.87" ry="2.61" transform="translate(-0.11 306.11)"/><ellipse class="k" cx="2.87" cy="2.61" rx="2.87" ry="2.61" transform="translate(7.22 291.01)"/><ellipse class="k" cx="2.87" cy="2.61" rx="2.87" ry="2.61" transform="translate(33.33 275.1)"/><ellipse class="k" cx="2.87" cy="2.61" rx="2.87" ry="2.61" transform="translate(53.14 290.36)"/><ellipse class="k" cx="2.87" cy="2.61" rx="2.87" ry="2.61" transform="translate(20.85 281.66)"/><ellipse class="k" cx="2.87" cy="2.61" rx="2.87" ry="2.61" transform="translate(36.46 287.56)"/><ellipse class="k" cx="2.87" cy="2.61" rx="2.87" ry="2.61" transform="translate(60.26 296.01)"/><ellipse class="k" cx="2.87" cy="2.61" rx="2.87" ry="2.61" transform="translate(23.29 314.76)"/><ellipse class="k" cx="2.87" cy="2.61" rx="2.87" ry="2.61" transform="translate(41.07 309.17)"/><ellipse class="k" cx="2.87" cy="2.61" rx="2.87" ry="2.61" transform="translate(46.69 279.62)"/><ellipse class="k" cx="2.87" cy="2.61" rx="2.87" ry="2.61" transform="translate(6.92 334.53)"/><ellipse class="k" cx="2.87" cy="2.61" rx="2.87" ry="2.61" transform="translate(-2.29 281.56)"/><ellipse class="k" cx="2.87" cy="2.61" rx="2.87" ry="2.61" transform="translate(16.49 324.7)"/><ellipse class="k" cx="2.87" cy="2.61" rx="2.87" ry="2.61" transform="translate(-2.99 327.45)"/></g><path class="a" d="M-51.29,382.29,72.75,297.24l91.28,110.24L39.98,492.54Z"/><ellipse class="k" cx="2.87" cy="2.61" rx="2.87" ry="2.61" transform="translate(25.96 333.27)"/><ellipse class="k" cx="2.87" cy="2.61" rx="2.87" ry="2.61" transform="translate(59.09 310.55)"/><ellipse class="k" cx="2.87" cy="2.61" rx="2.87" ry="2.61" transform="translate(43.11 334.36)"/><ellipse class="k" cx="2.87" cy="2.61" rx="2.87" ry="2.61" transform="translate(11.68 343.06)"/><ellipse class="k" cx="2.87" cy="2.61" rx="2.87" ry="2.61" transform="translate(-1.38 350.02)"/><ellipse class="k" cx="2.87" cy="2.61" rx="2.87" ry="2.61" transform="translate(61 338.38)"/><ellipse class="k" cx="2.87" cy="2.61" rx="2.87" ry="2.61" transform="translate(57.86 323.7)"/><ellipse class="k" cx="2.87" cy="2.61" rx="2.87" ry="2.61" transform="translate(42.03 320.26)"/><ellipse class="k" cx="2.87" cy="2.61" rx="2.87" ry="2.61" transform="translate(11.87 376)"/><ellipse class="k" cx="2.87" cy="2.61" rx="2.87" ry="2.61" transform="translate(23.23 362.61)"/><ellipse class="k" cx="2.87" cy="2.61" rx="2.87" ry="2.61" transform="translate(41.1 368.52)"/><ellipse class="k" cx="2.87" cy="2.61" rx="2.87" ry="2.61" transform="translate(28.81 373.68)"/><ellipse class="k" cx="2.87" cy="2.61" rx="2.87" ry="2.61" transform="translate(-0.2 375.41)"/><ellipse class="k" cx="2.87" cy="2.61" rx="2.87" ry="2.61" transform="translate(7.14 360.3)"/><ellipse class="k" cx="2.87" cy="2.61" rx="2.87" ry="2.61" transform="translate(33.24 344.4)"/><ellipse class="k" cx="2.87" cy="2.61" rx="2.87" ry="2.61" transform="translate(53.05 359.66)"/><ellipse class="k" cx="2.87" cy="2.61" rx="2.87" ry="2.61" transform="translate(20.77 350.96)"/><ellipse class="k" cx="2.87" cy="2.61" rx="2.87" ry="2.61" transform="translate(36.38 356.86)"/><ellipse class="k" cx="2.87" cy="2.61" rx="2.87" ry="2.61" transform="translate(52.61 373.76)"/><ellipse class="k" cx="2.87" cy="2.61" rx="2.87" ry="2.61" transform="translate(40.99 378.46)"/><ellipse class="k" cx="2.87" cy="2.61" rx="2.87" ry="2.61" transform="translate(51.2 345.76)"/><ellipse class="k" cx="2.87" cy="2.61" rx="2.87" ry="2.61" transform="translate(75.91 357.7)"/><ellipse class="k" cx="2.87" cy="2.61" rx="2.87" ry="2.61" transform="translate(87.28 344.31)"/><ellipse class="k" cx="2.87" cy="2.61" rx="2.87" ry="2.61" transform="translate(70.61 328.52)"/><ellipse class="k" cx="2.87" cy="2.61" rx="2.87" ry="2.61" transform="translate(105.14 350.23)"/><ellipse class="k" cx="2.87" cy="2.61" rx="2.87" ry="2.61" transform="translate(97.29 372.01)"/><ellipse class="k" cx="2.87" cy="2.61" rx="2.87" ry="2.61" transform="translate(92.85 355.38)"/><ellipse class="k" cx="2.87" cy="2.61" rx="2.87" ry="2.61" transform="translate(74.08 369.47)"/><ellipse class="k" cx="2.87" cy="2.61" rx="2.87" ry="2.61" transform="translate(63.85 357.11)"/><ellipse class="k" cx="2.87" cy="2.61" rx="2.87" ry="2.61" transform="translate(71.18 342.01)"/><ellipse class="k" cx="2.87" cy="2.61" rx="2.87" ry="2.61" transform="translate(72.01 314.55)"/><ellipse class="k" cx="2.87" cy="2.61" rx="2.87" ry="2.61" transform="translate(126.61 374.77)"/><ellipse class="k" cx="2.87" cy="2.61" rx="2.87" ry="2.61" transform="translate(84.81 332.66)"/><ellipse class="k" cx="2.87" cy="2.61" rx="2.87" ry="2.61" transform="translate(100.43 338.57)"/><ellipse class="k" cx="2.87" cy="2.61" rx="2.87" ry="2.61" transform="translate(116.66 355.46)"/><ellipse class="k" cx="2.87" cy="2.61" rx="2.87" ry="2.61" transform="translate(87.25 365.76)"/><ellipse class="k" cx="2.87" cy="2.61" rx="2.87" ry="2.61" transform="translate(86.4 381.43)"/><ellipse class="k" cx="2.87" cy="2.61" rx="2.87" ry="2.61" transform="translate(105.04 360.17)"/><ellipse class="k" cx="2.87" cy="2.61" rx="2.87" ry="2.61" transform="translate(115.93 373.33)"/><ellipse class="k" cx="2.87" cy="2.61" rx="2.87" ry="2.61" transform="translate(83.46 319.71)"/><ellipse class="k" cx="2.87" cy="2.61" rx="2.87" ry="2.61" transform="translate(103.13 383.4)"/><ellipse class="k" cx="2.87" cy="2.61" rx="2.87" ry="2.61" transform="translate(64.79 375.83)"/><ellipse class="k" cx="2.87" cy="2.61" rx="2.87" ry="2.61" transform="translate(65.79 302.69)"/></g></g></g></svg>