<svg xmlns="http://www.w3.org/2000/svg" width="951.489" height="465.46" viewBox="0 0 951.489 465.46"><defs><style>.a{fill:#ffd4d5;}.b{fill:#002636;}.c{fill:#f8b1a5;}.d{fill:#f99;}.e{fill:#ffe0e1;}</style></defs><g transform="translate(0 -32.337)"><path class="a" d="M0,135.433l345.671,49.9L405.682,202,556.507,356.627l-97-157.062,154.41,19.709,143.11,30.208,157.822-45.215L775.112,219.274,656.693,185.336,503.566,151.158,345.671,121.008,0,0Z" transform="translate(951.488 386.305) rotate(173)"/><g transform="matrix(-0.559, -0.829, 0.829, -0.559, 193.442, 254.608)"><rect class="b" width="1.355" height="38.307" transform="translate(0.214 23.822) rotate(-99.068)"/><path class="c" d="M22.845,16.8C11.418,18.626,1.19,14.06,0,6.6L41.383,0C42.571,7.455,34.274,14.979,22.845,16.8Z" transform="translate(37.379 10.6)"/><path class="d" d="M41.5,10.6.114,17.2C-1.077,9.748,7.223,2.225,18.649.4S40.306,3.143,41.5,10.6Z" transform="translate(37.266 0)"/></g><g transform="translate(256.423 299.685) rotate(155)"><rect class="b" width="2.128" height="60.155" transform="translate(0.335 37.408) rotate(-99.068)"/><path class="c" d="M35.874,26.385C17.931,29.249,1.869,22.079,0,10.369L64.985,0C66.851,11.708,53.821,23.522,35.874,26.385Z" transform="translate(58.698 16.646)"/><path class="d" d="M65.163,16.646.178,27.015C-1.691,15.308,11.342,3.493,29.286.63S63.294,4.936,65.163,16.646Z" transform="translate(58.519 0)"/></g><path class="e" d="M-1340.071,5694.292l-236.581-6.188-59.7-9.5-97.7-72.288,93.338,90.623,114.8,24.3,204.493,35.2Z" transform="translate(2161.296 -5443.445)"/><path class="c" d="M-1247.324,5748.066l-210.425-46.833-164.434-10.508-119.053-11.284,141.444,8.148,134.319-2.848,264.309,30.946Z" transform="translate(2053.203 -5392.631)"/><g transform="matrix(-0.259, -0.966, 0.966, -0.259, 578.539, 263.176)"><rect class="b" width="1.521" height="43.006" transform="translate(0.24 26.744) rotate(-99.068)"/><path class="c" d="M25.647,18.863C12.819,20.911,1.336,15.785,0,7.413L46.459,0C47.793,8.37,38.478,16.816,25.647,18.863Z" transform="translate(41.964 11.901)"/><path class="d" d="M46.587,11.9.128,19.314C-1.209,10.944,8.109,2.5,20.937.45S45.25,3.529,46.587,11.9Z" transform="translate(41.837 0)"/></g></g></svg>