<svg xmlns="http://www.w3.org/2000/svg" width="3015.088" height="975.895" viewBox="0 0 3015.088 975.895"><defs><style>.a{fill:#ee6367;}.b{fill:#ffd4d5;}.c{fill:#002636;}.d{fill:#f8b1a5;}.e{fill:#f99;}.f{fill:#ffe0e1;}</style></defs><g transform="translate(658.516 -2880.918)"><path class="a" d="M-2046.533,7617.492c823.465-35.9,1111.4-172.2,1891.562-100.074s966.543,74.66,966.543,74.66V7806s-360.491-139.613-1574.195-71.092-1440.894,226.906-1440.894,226.906Z" transform="translate(1545 -4105)"/><path class="a" d="M-2046.533,7537.02c823.465-11.989,1111.4-57.505,1891.562-33.418s966.543,24.932,966.543,24.932v71.435s-360.491-46.621-1574.195-23.74S-2203.516,7652-2203.516,7652Z" transform="translate(1545 -3831)"/><path class="b" d="M-1789.1,5691.912l203.954-29.444,35.408-9.834,88.99-91.231-57.234,92.67,91.106-11.629,84.439-17.823,93.119,26.678-82.447-8.855-69.87,20.024-90.349,20.166-93.162,17.79-203.954,71.4Z" transform="translate(2393.262 -2404.616) rotate(7)"/><g transform="matrix(0.438, -0.899, 0.899, 0.438, 378.91, 2993.723)"><rect class="c" width="1.21" height="34.209" transform="translate(7.31 8.948) rotate(99.068)"/><path class="d" d="M20.4.358C10.2-1.27,1.063,2.807,0,9.466l36.956,5.9C38.017,8.705,30.607,1.987,20.4.358Z" transform="translate(6.718 0)"/><path class="e" d="M37.057,5.9.1,0C-.961,6.658,6.45,13.376,16.654,15S35.994,12.556,37.057,5.9Z" transform="translate(6.616 9.466)"/></g><g transform="translate(248.208 2926.765) rotate(-81)"><rect class="c" width="1.255" height="35.493" transform="translate(8.585 9.283) rotate(99.068)"/><path class="d" d="M21.167.372C10.58-1.318,1.1,2.912,0,9.822L38.343,15.94C39.444,9.032,31.756,2.061,21.167.372Z" transform="translate(7.971 0)"/><path class="e" d="M38.448,6.118.105,0C-1,6.908,6.692,13.878,17.279,15.568S37.345,13.027,38.448,6.118Z" transform="translate(7.865 9.822)"/></g><g transform="matrix(0.857, -0.515, 0.515, 0.857, 264.465, 2945.037)"><rect class="c" width="0.897" height="25.375" transform="translate(-1.464 6.637) rotate(99.068)"/><path class="d" d="M15.133.266C7.564-.942.788,2.082,0,7.022L27.412,11.4C28.2,6.457,22.7,1.474,15.133.266Z" transform="translate(-1.903 0)"/><path class="e" d="M27.487,4.374.075,0C-.713,4.939,4.784,9.922,12.353,11.13S26.7,9.314,27.487,4.374Z" transform="translate(-1.978 7.022)"/></g><path class="f" d="M-1723.054,5658.221l139.588-3.651,35.226-5.608,57.647-42.652-55.072,53.47-67.736,14.341-120.656,20.767Z" transform="translate(1714 -2632)"/><path class="d" d="M-1714,5719.932l124.156-27.633,97.02-6.2,70.244-6.658-83.455,4.808-79.252-1.681-155.949,18.259Z" transform="translate(1714 -2632)"/><g transform="matrix(-0.259, 0.966, -0.966, -0.259, 380.776, 3104.335)"><rect class="c" width="0.996" height="5.935" transform="translate(6.018 7.367) rotate(99.068)"/><path class="d" d="M16.8.295C8.4-1.046.875,2.311,0,7.794l30.426,4.855C31.3,7.167,25.2,1.636,16.8.295Z" transform="translate(5.531 0)"/><path class="e" d="M30.51,4.855.083,0C-.792,5.482,5.31,11.013,13.712,12.354S29.635,10.338,30.51,4.855Z" transform="translate(5.447 7.794)"/></g><g transform="matrix(-0.259, 0.966, -0.966, -0.259, 383.776, 3455.335)"><rect class="c" width="0.996" height="5.935" transform="translate(6.018 7.367) rotate(99.068)"/><path class="d" d="M16.8.295C8.4-1.046.875,2.311,0,7.794l30.426,4.855C31.3,7.167,25.2,1.636,16.8.295Z" transform="translate(5.531 0)"/><path class="e" d="M30.51,4.855.083,0C-.792,5.482,5.31,11.013,13.712,12.354S29.635,10.338,30.51,4.855Z" transform="translate(5.447 7.794)"/></g><g transform="matrix(-0.259, 0.966, -0.966, -0.259, 223.776, 3589.335)"><rect class="c" width="0.996" height="5.935" transform="translate(6.018 7.367) rotate(99.068)"/><path class="d" d="M16.8.295C8.4-1.046.875,2.311,0,7.794l30.426,4.855C31.3,7.167,25.2,1.636,16.8.295Z" transform="translate(5.531 0)"/><path class="e" d="M30.51,4.855.083,0C-.792,5.482,5.31,11.013,13.712,12.354S29.635,10.338,30.51,4.855Z" transform="translate(5.447 7.794)"/></g><g transform="matrix(0.485, 0.875, -0.875, 0.485, 313.443, 3296.379)"><rect class="c" width="0.996" height="5.935" transform="translate(6.018 7.367) rotate(99.068)"/><path class="d" d="M16.8.295C8.4-1.046.875,2.311,0,7.794l30.426,4.855C31.3,7.167,25.2,1.636,16.8.295Z" transform="translate(5.531 0)"/><path class="e" d="M30.51,4.855.083,0C-.792,5.482,5.31,11.013,13.712,12.354S29.635,10.338,30.51,4.855Z" transform="translate(5.447 7.794)"/></g></g></svg>