<svg xmlns="http://www.w3.org/2000/svg" width="2195.892" height="1468.044" viewBox="0 0 2195.892 1468.044"><defs><style>.a{fill:none;stroke:#000;stroke-miterlimit:10;stroke-width:2px;}.b{fill:#fff;}.c{fill:#ffe0e0;}.d{fill:#002636;}.e,.h{fill:#f8b1a5;}.f{fill:#f99;}.g{fill:#ffd4d5;}.h{opacity:0.11;}</style></defs><g transform="translate(190 436)"><g transform="translate(-560.466 -227.435)"><g transform="translate(1788.004 756.692)"><line class="a" y2="53.74" transform="translate(124.865 229.387)"/><line class="a" y2="53.74" transform="translate(150.774 229.387)"/><rect width="56.66" height="4.57" rx="2.285" transform="translate(0 71.02)"/><path class="b" d="M332.156,475.922v.037a105.653,105.653,0,0,0,211.306-.037H530.4a79.75,79.75,0,0,1-79.739-78.439h0a54.507,54.507,0,0,0-18.6-39.919,60.517,60.517,0,0,0-81.09.92,54.665,54.665,0,0,0-17.53,39l-.184,10.679-.073,4.566Z" transform="translate(-292.97 -337.135)"/><ellipse cx="5.014" cy="5.014" rx="5.014" ry="5.014" transform="translate(59.108 60.992)"/><path class="b" d="M437.827,340.088l78.223-5.3-39.111,9.756h28.65L467.74,359.067Z" transform="translate(-338.744 -334.786)"/><path class="c" d="M2787.865,3299.942c0,27.326-3.782,70.647,23.982,100.593s94.684-12.72,94.684-12.72h0s-18.6-2.113-48.267-24.082S2787.865,3299.942,2787.865,3299.942Z" transform="translate(-2675.538 -3203.793)"/></g><g transform="translate(560.466 227.435)"><g transform="translate(1059.852 719.778)"><g transform="matrix(-0.391, 0.921, -0.921, -0.391, 178.178, 117.625)"><rect class="d" width="1.162" height="6.924" transform="translate(7.021 8.594) rotate(99.068)"/><path class="e" d="M19.6.344C9.794-1.22,1.021,2.7,0,9.093l35.5,5.664C36.516,8.361,29.4,1.908,19.6.344Z" transform="translate(6.453 0)"/><path class="f" d="M35.594,5.664.1,0C-.923,6.395,6.2,12.848,16,14.412S34.573,12.06,35.594,5.664Z" transform="translate(6.355 9.093)"/></g><path class="g" d="M0,445.1l229.333,34.245L535.1,495.16,895.447,525.2V412.211l-331.359,9.163L242.709,445.1Z" transform="translate(-0.004 -353.182)"/><g transform="translate(635.573 77.41) rotate(-130)"><rect class="d" width="1.892" height="11.275" transform="translate(11.433 13.994) rotate(99.068)"/><path class="e" d="M31.908.56C15.948-1.987,1.662,4.39,0,14.806l57.8,9.223C59.46,13.615,47.871,3.107,31.908.56Z" transform="translate(10.507 0)"/><path class="f" d="M57.959,9.223.159,0C-1.5,10.413,10.088,20.921,26.048,23.468S56.3,19.638,57.959,9.223Z" transform="translate(10.348 14.806)"/></g></g><path class="e" d="M206,3520.479l-323.133-26.443-106.881-6.182,92.7-4.7,201.776,4.7,221.427-19.5Z" transform="translate(1714 -2632)"/><g transform="matrix(0.438, -0.899, 0.899, 0.438, 1727.91, 770.723)"><rect class="d" width="1.21" height="34.209" transform="translate(7.31 8.948) rotate(99.068)"/><path class="e" d="M20.4.358C10.2-1.27,1.063,2.807,0,9.466l36.956,5.9C38.017,8.705,30.607,1.987,20.4.358Z" transform="translate(6.718 0)"/><path class="f" d="M37.057,5.9.1,0C-.961,6.658,6.45,13.376,16.654,15S35.994,12.556,37.057,5.9Z" transform="translate(6.616 9.466)"/></g></g></g><path class="h" d="M1094.59,7c30.4-26.5,139.35,34.9,167,55.85,66,50.12,133.74,180.83,132.69,264.38-1.62,128.15-96.88,191.16-205.6,218.82,42,143.79,37.41,268.88-25.25,413.68-57.19,132.15-220.21,192.85-354.54,176.72-16.92,78.11-5.9,157.7-58.92,226-97.78,125.85-304.21,125.77-438.44,71.7C100.42,1349.05,30.92,1112.83,12.82,904,5.09,814.71-14.92,716.54,24,632.3c42.24-91.46,128.94-175.19,194.42-249.2Z" transform="translate(-190.766 -436.474)"/></g></svg>