<svg xmlns="http://www.w3.org/2000/svg" xmlns:xlink="http://www.w3.org/1999/xlink" width="432.419" height="179.526" viewBox="0 0 432.419 179.526"><defs><style>.a{fill:#f8b1a5;}.b{fill:#002636;}.c{fill:#f99;}.d{fill:#ffd4d5;}.e{clip-path:url(#a);}.f{fill:none;stroke:#000;stroke-miterlimit:10;stroke-width:2px;}.g{fill:#fff;}</style><clipPath id="a"><path class="a" d="M-1413.03,4047.85l-142.482-8.121-167.919-1.593,6.107-21.27Z" transform="translate(1714.148 -4000.27)"/></clipPath></defs><g transform="translate(14.751 -1281.9)"><g transform="translate(-0.148 1279.372)"><g transform="translate(0 88.898)"><g transform="matrix(0.391, 0.921, -0.921, 0.391, 239.372, 56.669)"><rect class="b" width="0.883" height="5.261" transform="translate(0.139 12.419) rotate(-99.068)"/><path class="a" d="M14.888,10.95C7.442,12.139.776,9.163,0,4.3L26.97,0C27.744,4.859,22.337,9.762,14.888,10.95Z" transform="translate(4.903 6.908)"/><path class="c" d="M27.044,6.908l-26.97,4.3C-.7,6.353,4.707,1.45,12.154.261S26.268,2.048,27.044,6.908Z" transform="translate(4.829 0)"/></g><g transform="translate(338.375 38.472) rotate(-50)"><rect class="b" width="0.883" height="5.261" transform="translate(0.139 12.419) rotate(-99.068)"/><path class="a" d="M14.888,10.95C7.441,12.139.776,9.163,0,4.3L26.97,0C27.744,4.859,22.337,9.762,14.888,10.95Z" transform="translate(4.903 6.908)"/><path class="c" d="M27.044,6.908l-26.97,4.3C-.7,6.353,4.707,1.45,12.154.261S26.268,2.048,27.044,6.908Z" transform="translate(4.829 0)"/></g><path class="d" d="M417.819,427.556,310.812,443.535l-142.672,7.38L0,464.93V412.211l154.613,4.275,149.956,11.07Z" transform="translate(-0.004 -384.668)"/><g class="e"><path class="a" d="M304.572,427.556Z" transform="translate(-0.003 -384.668)"/></g></g></g><path class="a" d="M-1714,4081.625l166.614-14.759,92.372-5.384h-58.155l-44.593-2.118-73.155,4.4-97.834-2.279Z" transform="translate(1714 -2632)"/><g transform="translate(143.665 1281.9)"><line class="f" y2="23.248" transform="translate(54.347 99.235)"/><line class="f" y2="23.248" transform="translate(43.139 99.235)"/><rect width="24.512" height="1.977" rx="0.988" transform="translate(83.853 30.724)"/><path class="g" d="M423.569,400.179v.016a45.707,45.707,0,0,1-91.413-.016h5.651a34.5,34.5,0,0,0,34.5-33.934h0a23.58,23.58,0,0,1,8.045-17.27,26.18,26.18,0,0,1,35.08.4,23.649,23.649,0,0,1,7.584,16.871l.079,4.62.032,1.975Z" transform="translate(-332.156 -340.138)"/><ellipse cx="2.169" cy="2.169" rx="2.169" ry="2.169" transform="translate(78.457 26.386)"/><path class="g" d="M471.667,337.08l-33.84-2.294,16.92,4.22H442.353l16.374,6.284Z" transform="translate(-406.166 -334.786)"/></g></g></svg>